M48
; DRILL file {KiCad 8.0.4} date 2024-11-18T14:29:12+0100
; FORMAT={-:-/ absolute / metric / decimal}
; #@! TF.CreationDate,2024-11-18T14:29:12+01:00
; #@! TF.GenerationSoftware,Kicad,Pcbnew,8.0.4
; #@! TF.FileFunction,Plated,1,2,PTH
FMAT,2
METRIC
; #@! TA.AperFunction,Plated,PTH,ViaDrill
T1C0.300
; #@! TA.AperFunction,Plated,PTH,ViaDrill
T2C0.500
; #@! TA.AperFunction,Plated,PTH,ComponentDrill
T3C0.500
; #@! TA.AperFunction,Plated,PTH,ComponentDrill
T4C1.000
; #@! TA.AperFunction,Plated,PTH,ComponentDrill
T5C1.300
; #@! TA.AperFunction,Plated,PTH,ComponentDrill
T6C1.300
; #@! TA.AperFunction,Plated,PTH,ComponentDrill
T7C1.800
; #@! TA.AperFunction,Plated,PTH,ComponentDrill
T8C3.500
%
G90
G05
T1
X12.5Y-208.0
X14.5Y-37.0
X14.5Y-42.0
X14.5Y-47.0
X14.5Y-52.0
X14.5Y-57.0
X14.5Y-62.0
X14.5Y-67.0
X14.5Y-72.0
X14.5Y-77.0
X14.5Y-82.0
X14.5Y-87.0
X14.5Y-92.0
X14.5Y-97.0
X14.5Y-102.0
X14.5Y-107.0
X14.5Y-112.0
X14.5Y-117.0
X14.5Y-122.0
X14.5Y-127.0
X14.5Y-132.0
X14.5Y-137.0
X14.5Y-142.0
X14.5Y-147.0
X14.5Y-152.0
X14.5Y-157.0
X14.5Y-162.0
X14.5Y-167.0
X14.5Y-172.0
X14.5Y-177.0
X14.5Y-182.0
X14.5Y-187.0
X14.5Y-192.0
X15.0Y-211.5
X17.5Y-208.0
X19.5Y-39.5
X19.5Y-44.5
X19.5Y-49.5
X19.5Y-54.5
X19.5Y-59.5
X19.5Y-64.5
X19.5Y-69.5
X19.5Y-74.5
X19.5Y-79.5
X19.5Y-84.5
X19.5Y-89.5
X19.5Y-94.5
X19.5Y-99.5
X19.5Y-104.5
X19.5Y-109.5
X19.5Y-114.5
X19.5Y-119.5
X19.5Y-124.5
X19.5Y-129.5
X19.5Y-134.5
X19.5Y-139.5
X19.5Y-144.5
X19.5Y-149.5
X19.5Y-154.5
X19.5Y-159.5
X19.5Y-164.5
X19.5Y-169.5
X19.5Y-174.5
X19.5Y-179.5
X19.5Y-184.5
X19.5Y-189.5
X19.5Y-194.5
X20.0Y-211.5
X20.0Y-221.5
X21.0Y-35.0
X22.0Y-208.0
X22.5Y-216.5
X24.5Y-42.0
X24.5Y-47.0
X24.5Y-52.0
X24.5Y-57.0
X24.5Y-62.0
X24.5Y-67.0
X24.5Y-72.0
X24.5Y-77.0
X24.5Y-82.0
X24.5Y-87.0
X24.5Y-92.0
X24.5Y-97.0
X24.5Y-102.0
X24.5Y-107.0
X24.5Y-112.0
X24.5Y-117.0
X24.5Y-122.0
X24.5Y-127.0
X24.5Y-132.0
X24.5Y-137.0
X24.5Y-142.0
X24.5Y-147.0
X24.5Y-152.0
X24.5Y-157.0
X24.5Y-162.0
X24.5Y-167.0
X24.5Y-172.0
X24.5Y-177.0
X24.5Y-182.0
X24.5Y-187.0
X24.5Y-192.0
X24.5Y-197.0
X25.0Y-221.5
X26.0Y-35.0
X27.0Y-208.0
X27.5Y-216.5
X28.5Y-30.0
X30.0Y-211.5
X30.0Y-221.5
X31.0Y-35.0
X32.0Y-208.0
X32.5Y-216.5
X32.65Y-173.35
X33.5Y-30.0
X33.5Y-182.5
X33.5Y-184.5
X33.5Y-186.5
X33.9Y-175.1
X34.25Y-193.25
X35.0Y-211.5
X35.0Y-221.5
X35.5Y-177.0
X35.5Y-195.0
X36.0Y-35.0
X36.0Y-40.0
X36.0Y-45.0
X36.0Y-50.0
X36.0Y-55.0
X36.0Y-60.0
X36.0Y-65.0
X36.0Y-70.0
X36.0Y-75.0
X36.0Y-80.0
X36.0Y-85.0
X36.0Y-90.0
X36.0Y-95.0
X36.0Y-100.0
X36.0Y-105.0
X36.0Y-110.0
X36.0Y-115.0
X36.0Y-120.0
X36.0Y-125.0
X36.0Y-130.0
X36.0Y-135.0
X36.0Y-140.0
X36.0Y-145.0
X36.0Y-150.0
X36.0Y-155.0
X36.0Y-160.0
X36.0Y-165.0
X36.0Y-170.0
X36.0Y-175.0
X37.0Y-196.5
X37.0Y-198.5
X37.0Y-200.5
X37.0Y-202.75
X37.0Y-204.75
X37.25Y-178.75
X37.5Y-216.5
X38.5Y-30.0
X38.5Y-180.5
X38.5Y-182.5
X38.5Y-184.5
X38.5Y-186.5
X38.5Y-188.75
X38.5Y-190.75
X40.0Y-211.5
X40.0Y-221.5
X41.8Y-35.0
X42.0Y-208.0
X42.5Y-216.5
X43.5Y-30.0
X45.0Y-196.5
X45.0Y-198.5
X45.0Y-200.5
X45.0Y-202.75
X45.0Y-204.75
X45.0Y-211.5
X45.0Y-221.5
X46.0Y-35.0
X47.0Y-208.0
X47.25Y-57.25
X47.25Y-62.5
X47.5Y-80.5
X47.5Y-86.25
X47.5Y-103.5
X47.5Y-109.25
X47.5Y-216.5
X48.05Y-169.2
X48.1Y-187.0
X48.25Y-97.75
X48.25Y-145.0
X48.5Y-30.0
X48.5Y-48.5
X48.5Y-74.75
X48.5Y-127.25
X48.5Y-133.0
X48.75Y-121.5
X49.25Y-62.5
X49.3Y-147.8
X49.5Y-57.25
X49.5Y-80.5
X49.5Y-86.25
X49.5Y-103.5
X49.5Y-109.25
X49.5Y-203.0
X50.0Y-221.5
X50.05Y-169.2
X50.1Y-187.0
X50.25Y-97.75
X50.25Y-145.0
X50.3Y-41.4
X50.5Y-74.75
X50.5Y-127.25
X50.5Y-133.0
X50.75Y-121.5
X50.9Y-41.4
X51.0Y-35.0
X51.25Y-62.5
X51.3Y-147.8
X51.3Y-152.6
X51.4Y-87.0
X51.5Y-41.4
X51.5Y-57.25
X51.5Y-103.5
X51.5Y-109.25
X51.75Y-80.5
X51.8Y-55.8
X51.85Y-173.4
X52.0Y-87.0
X52.0Y-208.0
X52.05Y-169.2
X52.1Y-41.4
X52.1Y-187.0
X52.25Y-97.75
X52.25Y-145.0
X52.4Y-55.8
X52.5Y-64.5
X52.5Y-74.75
X52.5Y-127.25
X52.5Y-133.0
X52.6Y-87.0
X52.75Y-121.5
X53.0Y-55.8
X53.1Y-64.5
X53.2Y-87.0
X53.25Y-62.5
X53.3Y-147.8
X53.3Y-152.6
X53.5Y-30.0
X53.5Y-57.25
X53.5Y-103.5
X53.5Y-109.25
X53.589Y-41.25
X53.6Y-55.8
X53.7Y-64.5
X53.75Y-80.5
X53.85Y-173.4
X54.05Y-169.2
X54.1Y-42.6
X54.1Y-187.0
X54.25Y-97.75
X54.25Y-145.0
X54.3Y-64.5
X54.5Y-74.75
X54.5Y-127.25
X54.5Y-133.0
X54.5Y-203.0
X54.7Y-42.6
X54.75Y-121.5
X55.0Y-87.0
X55.0Y-221.5
X55.25Y-62.5
X55.3Y-42.6
X55.3Y-147.8
X55.3Y-152.6
X55.5Y-103.5
X55.5Y-109.25
X55.6Y-87.0
X55.6Y-111.8
X55.75Y-80.5
X55.8Y-56.8
X55.85Y-173.4
X55.9Y-42.6
X56.0Y-35.0
X56.05Y-169.2
X56.1Y-165.2
X56.1Y-187.0
X56.2Y-87.0
X56.2Y-111.8
X56.25Y-145.0
X56.4Y-56.8
X56.5Y-65.25
X56.5Y-74.75
X56.5Y-97.75
X56.5Y-127.25
X56.5Y-133.0
X56.7Y-135.25
X56.7Y-165.2
X56.75Y-121.5
X56.8Y-87.0
X56.8Y-111.8
X57.0Y-56.8
X57.0Y-208.0
X57.1Y-65.25
X57.25Y-62.5
X57.3Y-135.25
X57.3Y-147.8
X57.3Y-152.6
X57.3Y-165.2
X57.4Y-111.8
X57.5Y-103.5
X57.5Y-109.25
X57.5Y-216.5
X57.6Y-56.8
X57.7Y-65.25
X57.75Y-80.5
X57.85Y-173.4
X57.9Y-135.25
X57.9Y-165.2
X58.05Y-169.2
X58.25Y-145.0
X58.3Y-43.6
X58.3Y-65.25
X58.35Y-187.0
X58.5Y-30.0
X58.5Y-41.25
X58.5Y-74.75
X58.5Y-97.75
X58.5Y-127.25
X58.5Y-133.0
X58.5Y-135.25
X58.6Y-87.0
X58.75Y-121.5
X58.9Y-43.6
X59.2Y-87.0
X59.2Y-111.8
X59.25Y-62.5
X59.3Y-147.8
X59.3Y-152.6
X59.5Y-43.6
X59.5Y-57.25
X59.5Y-103.5
X59.5Y-109.25
X59.5Y-203.0
X59.8Y-87.0
X59.8Y-111.8
X59.85Y-173.4
X60.0Y-211.5
X60.0Y-221.5
X60.05Y-169.2
X60.1Y-43.6
X60.25Y-80.5
X60.35Y-187.0
X60.4Y-87.0
X60.4Y-111.8
X60.5Y-66.25
X60.5Y-127.25
X60.5Y-133.0
X60.95Y-135.75
X61.0Y-35.0
X61.0Y-111.8
X61.1Y-66.25
X61.25Y-62.5
X61.3Y-152.6
X61.3Y-165.2
X61.5Y-57.25
X61.5Y-86.25
X61.5Y-103.5
X61.5Y-109.25
X61.5Y-147.75
X61.55Y-135.75
X61.649Y-41.3
X61.7Y-66.25
X61.85Y-173.4
X61.9Y-165.2
X62.0Y-208.0
X62.05Y-169.2
X62.15Y-135.75
X62.25Y-80.5
X62.3Y-66.25
X62.35Y-187.0
X62.5Y-127.25
X62.5Y-133.0
X62.5Y-165.2
X62.5Y-216.5
X62.75Y-135.75
X63.1Y-165.2
X63.25Y-62.5
X63.3Y-152.6
X63.5Y-30.0
X63.5Y-57.25
X63.5Y-86.25
X63.5Y-103.5
X63.5Y-109.25
X63.5Y-147.75
X63.6Y-111.8
X63.85Y-173.4
X64.05Y-169.2
X64.2Y-111.8
X64.25Y-80.5
X64.35Y-187.0
X64.5Y-55.0
X64.5Y-74.75
X64.5Y-97.75
X64.5Y-127.25
X64.5Y-133.0
X64.5Y-203.0
X64.75Y-121.5
X64.75Y-145.0
X64.8Y-111.8
X65.0Y-211.5
X65.0Y-221.5
X65.25Y-62.5
X65.3Y-152.6
X65.4Y-111.8
X65.5Y-57.25
X65.5Y-86.25
X65.5Y-103.5
X65.5Y-109.25
X65.5Y-147.75
X65.85Y-173.4
X66.0Y-35.0
X66.05Y-169.2
X66.25Y-80.5
X66.35Y-187.0
X66.5Y-55.0
X66.5Y-74.75
X66.5Y-97.75
X66.5Y-127.25
X66.5Y-133.0
X66.56Y-41.3
X66.75Y-121.5
X66.75Y-145.0
X67.0Y-208.0
X67.5Y-57.25
X67.5Y-86.25
X67.5Y-103.5
X67.5Y-109.25
X67.5Y-147.75
X67.5Y-216.5
X67.55Y-152.6
X67.85Y-173.4
X68.05Y-169.2
X68.1Y-199.6
X68.5Y-30.0
X68.5Y-55.0
X68.5Y-74.75
X68.5Y-80.5
X68.5Y-97.75
X68.5Y-127.25
X68.5Y-133.0
X68.75Y-121.5
X68.75Y-145.0
X69.5Y-57.25
X69.5Y-86.25
X69.5Y-103.5
X69.5Y-109.25
X69.5Y-147.75
X69.5Y-203.0
X69.55Y-152.6
X70.0Y-211.5
X70.0Y-221.5
X70.05Y-169.2
X70.1Y-173.4
X70.1Y-199.6
X70.5Y-55.0
X70.5Y-74.75
X70.5Y-80.5
X70.5Y-97.75
X70.5Y-124.75
X70.75Y-41.25
X70.75Y-121.5
X70.75Y-145.0
X71.352Y-109.102
X71.5Y-147.75
X71.55Y-152.6
X72.0Y-208.0
X72.05Y-169.2
X72.1Y-157.0
X72.1Y-173.4
X72.1Y-199.6
X72.5Y-55.0
X72.5Y-124.75
X72.5Y-216.5
X72.7Y-157.0
X72.75Y-74.75
X72.75Y-97.75
X72.75Y-121.5
X72.75Y-145.0
X73.3Y-157.0
X73.5Y-30.0
X73.5Y-101.5
X73.5Y-147.75
X73.55Y-152.6
X73.75Y-78.0
X73.9Y-157.0
X74.1Y-173.4
X74.1Y-199.6
X74.2Y-117.0
X74.3Y-169.2
X74.5Y-55.0
X74.5Y-124.75
X74.5Y-203.0
X74.75Y-74.75
X74.75Y-97.75
X74.75Y-121.5
X74.75Y-145.0
X74.8Y-117.0
X75.0Y-211.5
X75.0Y-221.5
X75.4Y-117.0
X75.5Y-101.5
X75.5Y-147.75
X75.55Y-152.6
X75.75Y-78.0
X76.0Y-117.0
X76.1Y-157.0
X76.1Y-173.4
X76.1Y-199.6
X76.3Y-169.2
X76.5Y-55.0
X76.5Y-124.75
X76.65Y-187.0
X76.7Y-157.0
X76.75Y-74.75
X76.75Y-97.75
X76.75Y-121.5
X76.75Y-145.0
X77.0Y-208.0
X77.3Y-157.0
X77.5Y-101.5
X77.5Y-147.75
X77.5Y-216.5
X77.55Y-152.6
X77.7Y-140.25
X77.75Y-78.0
X77.9Y-157.0
X78.1Y-173.4
X78.1Y-199.6
X78.2Y-69.8
X78.2Y-117.0
X78.3Y-140.25
X78.3Y-169.2
X78.5Y-30.0
X78.5Y-48.6
X78.5Y-55.0
X78.5Y-124.75
X78.65Y-187.0
X78.7Y-175.8
X78.7Y-176.4
X78.7Y-177.0
X78.7Y-177.6
X78.7Y-183.0
X78.7Y-183.6
X78.7Y-184.2
X78.7Y-184.8
X78.75Y-74.75
X78.75Y-97.75
X78.75Y-121.5
X78.75Y-145.0
X78.8Y-69.8
X78.8Y-117.0
X78.9Y-140.25
X79.1Y-48.6
X79.4Y-69.8
X79.4Y-117.0
X79.5Y-140.25
X79.5Y-147.75
X79.5Y-203.0
X79.7Y-48.6
X79.75Y-40.25
X80.0Y-69.8
X80.0Y-117.0
X80.0Y-211.5
X80.0Y-221.5
X80.1Y-153.3
X80.1Y-173.4
X80.3Y-48.6
X80.3Y-169.2
X80.35Y-199.6
X80.5Y-55.0
X80.5Y-80.5
X80.5Y-127.25
X80.65Y-187.0
X80.75Y-74.75
X80.75Y-84.5
X80.75Y-97.75
X80.75Y-121.5
X80.75Y-145.0
X80.8Y-92.4
X81.1Y-157.0
X81.4Y-92.4
X81.5Y-147.75
X81.6Y-154.8
X81.7Y-157.0
X81.95Y-140.25
X82.0Y-57.25
X82.0Y-69.8
X82.0Y-92.4
X82.0Y-208.0
X82.2Y-117.0
X82.3Y-157.0
X82.3Y-169.2
X82.35Y-199.6
X82.5Y-80.5
X82.5Y-109.0
X82.5Y-127.25
X82.5Y-132.0
X82.5Y-216.5
X82.55Y-140.25
X82.6Y-69.8
X82.6Y-92.4
X82.65Y-187.0
X82.7Y-48.6
X82.75Y-74.75
X82.75Y-84.5
X82.75Y-97.75
X82.75Y-121.5
X82.75Y-145.0
X82.8Y-117.0
X82.9Y-157.0
X83.0Y-103.5
X83.15Y-140.25
X83.2Y-69.8
X83.3Y-48.6
X83.4Y-117.0
X83.5Y-30.0
X83.5Y-40.25
X83.5Y-147.75
X83.75Y-140.25
X83.8Y-69.8
X83.9Y-48.6
X84.0Y-57.25
X84.0Y-117.0
X84.3Y-169.2
X84.35Y-199.6
X84.5Y-48.6
X84.5Y-80.5
X84.5Y-109.0
X84.5Y-127.25
X84.5Y-132.0
X84.5Y-203.0
X84.6Y-92.4
X84.6Y-157.8
X84.65Y-187.0
X84.75Y-74.75
X84.75Y-84.5
X85.0Y-97.75
X85.0Y-103.5
X85.0Y-121.5
X85.0Y-145.0
X85.0Y-211.5
X85.0Y-221.5
X85.2Y-92.4
X85.3Y-149.5
X85.5Y-147.75
X85.6Y-69.8
X85.7Y-170.9
X85.8Y-92.4
X85.95Y-117.0
X86.0Y-35.0
X86.0Y-57.25
X86.1Y-159.3
X86.2Y-69.8
X86.35Y-199.6
X86.4Y-48.6
X86.4Y-92.4
X86.5Y-80.5
X86.5Y-109.0
X86.5Y-127.25
X86.5Y-132.0
X86.55Y-117.0
X86.65Y-187.0
X86.75Y-74.75
X86.75Y-84.5
X86.8Y-69.8
X86.8Y-151.0
X87.0Y-48.6
X87.0Y-97.75
X87.0Y-103.5
X87.0Y-121.5
X87.0Y-145.0
X87.0Y-208.0
X87.15Y-117.0
X87.2Y-172.4
X87.4Y-69.8
X87.5Y-147.75
X87.5Y-216.5
X87.6Y-48.6
X87.6Y-52.4
X87.6Y-160.8
X87.75Y-117.0
X88.0Y-52.8
X88.0Y-57.25
X88.2Y-48.6
X88.2Y-92.4
X88.3Y-152.75
X88.35Y-199.6
X88.4Y-53.2
X88.5Y-30.0
X88.5Y-40.5
X88.5Y-80.5
X88.5Y-109.0
X88.5Y-127.25
X88.5Y-132.0
X88.65Y-187.0
X88.7Y-173.9
X88.75Y-84.5
X88.8Y-53.6
X88.8Y-72.6
X88.8Y-73.2
X88.8Y-73.8
X88.8Y-74.4
X88.8Y-76.2
X88.8Y-76.8
X88.8Y-77.4
X88.8Y-78.0
X88.8Y-92.4
X89.0Y-103.5
X89.0Y-121.5
X89.0Y-145.0
X89.1Y-162.3
X89.2Y-95.8
X89.2Y-96.4
X89.2Y-97.0
X89.2Y-97.6
X89.2Y-99.8
X89.2Y-100.4
X89.2Y-101.0
X89.2Y-101.6
X89.4Y-92.4
X89.5Y-147.75
X89.5Y-203.0
X89.8Y-154.0
X90.0Y-54.8
X90.0Y-57.25
X90.0Y-92.4
X90.0Y-211.5
X90.0Y-221.5
X90.25Y-62.0
X90.35Y-199.6
X90.4Y-55.2
X90.45Y-175.65
X90.5Y-80.5
X90.5Y-109.0
X90.5Y-127.25
X90.5Y-132.0
X90.65Y-187.0
X90.75Y-84.5
X90.8Y-55.6
X90.8Y-118.0
X90.8Y-118.6
X90.8Y-119.2
X90.8Y-119.8
X90.85Y-164.05
X91.0Y-35.0
X91.0Y-40.5
X91.0Y-103.5
X91.0Y-121.5
X91.0Y-145.0
X91.2Y-56.0
X91.3Y-155.5
X91.5Y-147.75
X91.6Y-92.4
X91.7Y-177.4
X91.75Y-63.75
X92.0Y-57.25
X92.0Y-208.0
X92.1Y-165.8
X92.1Y-199.4
X92.2Y-92.4
X92.5Y-42.0
X92.5Y-109.0
X92.5Y-127.25
X92.5Y-132.0
X92.5Y-216.5
X92.65Y-187.0
X92.7Y-199.4
X92.75Y-58.5
X92.75Y-80.5
X92.75Y-84.5
X92.8Y-92.4
X92.8Y-157.0
X93.0Y-103.5
X93.0Y-121.5
X93.0Y-145.0
X93.25Y-65.0
X93.25Y-178.4
X93.3Y-199.4
X93.4Y-92.4
X93.5Y-30.0
X93.5Y-147.75
X93.7Y-167.7
X93.9Y-199.4
X94.0Y-43.75
X94.0Y-57.25
X94.0Y-133.75
X94.25Y-59.75
X94.3Y-158.5
X94.5Y-127.25
X94.5Y-203.0
X94.65Y-187.0
X94.75Y-66.5
X94.75Y-80.5
X94.75Y-84.5
X95.0Y-103.5
X95.0Y-110.5
X95.0Y-145.0
X95.0Y-211.5
X95.0Y-221.5
X95.25Y-178.4
X95.45Y-169.45
X95.5Y-45.0
X95.5Y-135.25
X95.5Y-147.75
X95.75Y-38.0
X95.75Y-61.25
X96.0Y-35.0
X96.0Y-57.25
X96.05Y-160.25
X96.25Y-68.0
X96.5Y-112.0
X96.5Y-127.25
X96.65Y-187.0
X96.7Y-171.2
X96.75Y-80.5
X96.75Y-84.5
X97.0Y-46.5
X97.0Y-137.0
X97.0Y-208.0
X97.25Y-62.75
X97.25Y-178.4
X97.3Y-162.0
X97.3Y-199.4
X97.5Y-103.5
X97.5Y-216.5
X97.75Y-40.75
X97.75Y-69.5
X97.75Y-147.75
X97.9Y-199.4
X98.0Y-57.25
X98.0Y-113.75
X98.25Y-85.5
X98.5Y-30.0
X98.5Y-48.0
X98.5Y-127.25
X98.5Y-138.25
X98.5Y-199.4
X98.65Y-187.0
X98.75Y-64.25
X98.75Y-80.5
X99.1Y-149.6
X99.1Y-150.2
X99.1Y-150.8
X99.1Y-151.4
X99.1Y-153.8
X99.1Y-154.4
X99.1Y-155.0
X99.1Y-155.6
X99.1Y-158.8
X99.1Y-159.4
X99.1Y-160.0
X99.1Y-160.6
X99.1Y-163.2
X99.1Y-163.8
X99.1Y-164.4
X99.1Y-165.0
X99.1Y-199.4
X99.25Y-38.0
X99.25Y-178.4
X99.5Y-71.25
X99.5Y-103.5
X99.5Y-115.0
X99.5Y-203.0
X99.58Y-43.1
X99.75Y-86.75
X99.75Y-147.75
X100.0Y-49.5
X100.0Y-139.75
X100.0Y-211.5
X100.0Y-221.5
X100.2Y-57.2
X100.5Y-66.0
X100.5Y-109.25
X100.5Y-127.25
X100.5Y-132.5
X100.65Y-187.0
X100.75Y-73.0
X101.0Y-35.0
X101.0Y-40.75
X101.0Y-80.5
X101.0Y-116.5
X101.1Y-199.4
X101.25Y-88.25
X101.25Y-178.4
X101.5Y-141.25
X101.6Y-56.6
X101.7Y-199.4
X101.75Y-51.25
X101.75Y-67.75
X101.75Y-90.25
X101.75Y-92.25
X101.75Y-94.25
X101.75Y-96.25
X101.75Y-97.75
X101.75Y-103.5
X101.75Y-147.75
X102.0Y-110.75
X102.0Y-134.0
X102.0Y-208.0
X102.12Y-38.02
X102.2Y-56.6
X102.3Y-199.4
X102.5Y-118.0
X102.5Y-216.5
X102.65Y-187.0
X102.75Y-82.25
X102.75Y-127.25
X102.8Y-56.6
X102.9Y-199.4
X103.0Y-43.0
X103.0Y-53.0
X103.0Y-80.5
X103.0Y-142.75
X103.25Y-74.75
X103.25Y-178.4
X103.4Y-56.6
X103.5Y-30.0
X103.5Y-112.5
X103.5Y-135.75
X103.75Y-69.75
X103.75Y-97.75
X103.75Y-103.5
X103.75Y-147.75
X104.0Y-119.5
X104.25Y-40.5
X104.35Y-69.75
X104.5Y-84.25
X104.5Y-203.0
X104.65Y-187.0
X104.75Y-99.0
X104.75Y-127.25
X104.75Y-144.5
X104.95Y-69.75
X105.0Y-46.0
X105.0Y-80.5
X105.0Y-113.75
X105.0Y-137.0
X105.0Y-211.5
X105.0Y-221.5
X105.1Y-168.6
X105.25Y-74.75
X105.25Y-178.4
X105.4Y-56.6
X105.5Y-38.0
X105.55Y-69.75
X105.75Y-103.5
X105.75Y-121.25
X105.75Y-147.75
X106.0Y-35.0
X106.0Y-56.6
X106.0Y-86.25
X106.0Y-88.25
X106.0Y-90.25
X106.0Y-92.25
X106.0Y-94.25
X106.25Y-100.75
X106.5Y-115.25
X106.5Y-138.5
X106.6Y-56.6
X106.65Y-187.0
X106.75Y-127.25
X107.0Y-80.5
X107.0Y-123.0
X107.0Y-208.0
X107.1Y-168.6
X107.2Y-56.6
X107.25Y-74.75
X107.25Y-178.4
X107.4Y-34.2
X107.5Y-216.5
X107.7Y-47.6
X107.75Y-69.75
X107.75Y-102.0
X107.75Y-103.5
X107.75Y-147.75
X107.9Y-161.2
X108.0Y-34.2
X108.0Y-116.75
X108.0Y-140.0
X108.3Y-47.6
X108.35Y-69.75
X108.5Y-30.0
X108.55Y-93.25
X108.6Y-34.2
X108.65Y-187.0
X108.75Y-127.25
X108.9Y-47.6
X108.95Y-69.75
X108.95Y-116.5
X108.95Y-140.0
X109.0Y-80.5
X109.1Y-168.6
X109.15Y-93.25
X109.2Y-34.2
X109.25Y-58.75
X109.25Y-74.75
X109.25Y-178.4
X109.5Y-47.6
X109.5Y-118.25
X109.5Y-141.5
X109.5Y-203.0
X109.55Y-69.75
X109.55Y-116.5
X109.55Y-140.0
X109.75Y-93.25
X109.75Y-103.5
X109.9Y-161.2
X110.0Y-211.5
X110.0Y-221.5
X110.15Y-116.5
X110.15Y-140.0
X110.35Y-93.25
X110.65Y-187.0
X110.75Y-116.5
X110.75Y-127.25
X110.75Y-140.0
X111.0Y-35.0
X111.0Y-80.5
X111.25Y-58.75
X111.25Y-74.75
X111.25Y-120.0
X111.25Y-143.25
X111.25Y-178.4
X111.5Y-55.0
X111.7Y-168.6
X111.75Y-99.25
X111.75Y-103.5
X111.9Y-161.2
X111.9Y-191.6
X112.0Y-208.0
X112.5Y-121.75
X112.5Y-145.0
X112.5Y-191.6
X112.5Y-216.5
X112.75Y-127.25
X112.9Y-187.0
X113.0Y-80.5
X113.1Y-191.6
X113.25Y-58.75
X113.25Y-74.75
X113.25Y-178.4
X113.5Y-30.0
X113.5Y-55.0
X113.7Y-168.6
X113.7Y-191.6
X113.75Y-99.25
X113.75Y-103.5
X113.8Y-93.25
X113.9Y-161.2
X114.2Y-116.5
X114.2Y-140.0
X114.4Y-93.25
X114.5Y-150.75
X114.5Y-203.0
X114.75Y-123.5
X114.75Y-147.0
X114.8Y-116.5
X114.8Y-140.0
X114.9Y-187.0
X115.0Y-80.5
X115.0Y-93.25
X115.0Y-127.25
X115.0Y-211.5
X115.0Y-221.5
X115.25Y-74.75
X115.25Y-178.4
X115.4Y-116.5
X115.4Y-140.0
X115.5Y-55.0
X115.5Y-69.75
X115.6Y-34.4
X115.6Y-93.25
X115.7Y-47.6
X115.7Y-168.6
X115.75Y-99.25
X115.75Y-103.5
X115.9Y-161.2
X116.0Y-116.5
X116.0Y-140.0
X116.1Y-69.75
X116.2Y-34.4
X116.3Y-47.6
X116.5Y-150.75
X116.6Y-58.4
X116.7Y-69.75
X116.75Y-123.5
X116.75Y-147.0
X116.8Y-34.4
X116.9Y-47.6
X116.9Y-187.0
X117.0Y-80.5
X117.0Y-127.25
X117.0Y-208.0
X117.1Y-191.6
X117.2Y-58.4
X117.25Y-74.75
X117.25Y-178.4
X117.3Y-69.75
X117.4Y-34.4
X117.5Y-47.6
X117.5Y-55.0
X117.5Y-216.5
X117.7Y-168.6
X117.7Y-191.6
X117.75Y-99.25
X117.75Y-103.5
X117.8Y-58.4
X117.9Y-161.2
X118.25Y-97.0
X118.3Y-191.6
X118.4Y-58.4
X118.4Y-93.2
X118.4Y-140.0
X118.5Y-30.0
X118.5Y-150.75
X118.6Y-116.6
X118.75Y-123.5
X118.75Y-147.0
X118.9Y-187.0
X118.9Y-191.6
X119.0Y-80.5
X119.0Y-93.2
X119.0Y-120.0
X119.0Y-127.25
X119.0Y-140.0
X119.2Y-116.6
X119.25Y-74.75
X119.25Y-143.5
X119.25Y-178.4
X119.3Y-69.75
X119.5Y-47.6
X119.5Y-55.0
X119.5Y-203.0
X119.6Y-93.2
X119.6Y-140.0
X119.7Y-168.6
X119.75Y-99.25
X119.75Y-103.5
X119.8Y-116.6
X119.9Y-38.02
X119.9Y-69.75
X120.0Y-211.5
X120.0Y-221.5
X120.1Y-47.6
X120.15Y-161.2
X120.2Y-93.2
X120.2Y-140.0
X120.25Y-75.75
X120.4Y-58.4
X120.4Y-116.6
X120.5Y-69.75
X120.5Y-150.75
X120.7Y-47.6
X120.75Y-123.5
X120.75Y-147.0
X120.9Y-187.0
X121.0Y-35.0
X121.0Y-58.4
X121.0Y-80.5
X121.0Y-127.25
X121.1Y-69.75
X121.25Y-178.4
X121.3Y-47.6
X121.5Y-55.0
X121.6Y-58.4
X121.7Y-168.6
X121.75Y-77.25
X121.75Y-99.25
X121.75Y-103.5
X121.75Y-138.5
X122.0Y-208.0
X122.15Y-161.2
X122.2Y-58.4
X122.2Y-93.2
X122.2Y-115.0
X122.5Y-150.75
X122.5Y-216.5
X122.75Y-123.5
X122.75Y-147.0
X122.8Y-93.2
X122.9Y-187.0
X123.0Y-80.5
X123.0Y-127.25
X123.25Y-79.0
X123.25Y-97.0
X123.25Y-178.4
X123.4Y-93.2
X123.5Y-30.0
X123.5Y-55.0
X123.7Y-168.6
X123.75Y-99.25
X123.75Y-103.5
X124.0Y-93.2
X124.0Y-120.0
X124.15Y-161.2
X124.25Y-143.5
X124.5Y-150.75
X124.5Y-203.0
X124.75Y-123.5
X124.75Y-147.0
X125.0Y-80.5
X125.0Y-127.25
X125.0Y-211.5
X125.0Y-221.5
X125.22Y-38.02
X125.25Y-58.75
X125.25Y-178.4
X125.45Y-68.25
X125.5Y-55.0
X125.7Y-168.6
X125.75Y-99.25
X125.75Y-103.5
X125.8Y-46.4
X126.0Y-35.0
X126.05Y-68.25
X126.15Y-161.2
X126.4Y-46.4
X126.5Y-115.0
X126.5Y-150.75
X126.65Y-68.25
X126.75Y-123.5
X126.75Y-138.5
X126.75Y-147.0
X127.0Y-46.4
X127.0Y-76.5
X127.0Y-80.5
X127.0Y-127.25
X127.0Y-208.0
X127.05Y-193.6
X127.25Y-58.75
X127.25Y-68.25
X127.25Y-178.4
X127.5Y-55.0
X127.5Y-216.5
X127.6Y-46.4
X127.7Y-168.6
X127.75Y-99.25
X127.75Y-103.5
X128.15Y-161.2
X128.5Y-30.0
X128.5Y-150.75
X128.75Y-123.5
X128.75Y-147.0
X129.0Y-76.5
X129.0Y-80.5
X129.0Y-127.25
X129.05Y-193.6
X129.2Y-68.25
X129.25Y-58.75
X129.5Y-55.0
X129.5Y-178.4
X129.5Y-203.0
X129.55Y-90.75
X129.6Y-46.4
X129.7Y-168.6
X129.75Y-99.25
X129.75Y-103.5
X129.8Y-68.25
X130.0Y-211.5
X130.0Y-221.5
X130.15Y-90.75
X130.15Y-161.2
X130.2Y-46.4
X130.22Y-38.02
X130.4Y-68.25
X130.5Y-150.75
X130.75Y-90.75
X130.75Y-123.5
X130.75Y-147.0
X130.8Y-46.4
X130.95Y-113.25
X130.95Y-136.5
X131.0Y-35.0
X131.0Y-68.25
X131.0Y-76.5
X131.0Y-80.5
X131.0Y-127.25
X131.05Y-193.6
X131.1Y-173.35
X131.1Y-175.35
X131.1Y-177.6
X131.1Y-179.6
X131.1Y-181.6
X131.1Y-183.6
X131.1Y-185.6
X131.1Y-187.6
X131.1Y-187.6
X131.25Y-58.75
X131.35Y-90.75
X131.4Y-46.4
X131.5Y-55.0
X131.55Y-113.25
X131.55Y-136.5
X131.7Y-168.6
X131.75Y-99.25
X131.75Y-103.5
X132.0Y-208.0
X132.15Y-113.25
X132.15Y-136.5
X132.5Y-150.75
X132.5Y-216.5
X132.75Y-113.25
X132.75Y-123.5
X132.75Y-136.5
X132.75Y-147.0
X133.0Y-80.5
X133.0Y-127.25
X133.05Y-193.6
X133.1Y-187.6
X133.25Y-58.75
X133.5Y-30.0
X133.5Y-178.4
X133.7Y-168.6
X133.75Y-103.5
X134.5Y-150.75
X134.5Y-203.0
X134.75Y-123.5
X135.0Y-80.5
X135.0Y-127.25
X135.0Y-211.5
X135.0Y-221.5
X135.05Y-193.6
X135.1Y-187.6
X135.22Y-38.02
X135.25Y-58.75
X135.5Y-178.4
X135.7Y-152.35
X135.7Y-154.35
X135.7Y-156.6
X135.7Y-158.6
X135.7Y-160.6
X135.7Y-162.6
X135.7Y-164.6
X135.7Y-166.6
X135.7Y-168.6
X135.75Y-103.5
X135.95Y-113.25
X135.95Y-136.5
X136.0Y-35.0
X136.5Y-150.75
X136.55Y-113.25
X136.55Y-136.5
X136.75Y-123.5
X136.75Y-147.0
X137.0Y-76.5
X137.0Y-80.5
X137.0Y-127.25
X137.0Y-208.0
X137.05Y-193.6
X137.1Y-187.6
X137.15Y-113.25
X137.15Y-136.5
X137.25Y-58.75
X137.5Y-46.6
X137.5Y-55.0
X137.5Y-216.5
X137.7Y-68.25
X137.7Y-168.6
X137.7Y-177.6
X137.7Y-178.2
X137.7Y-178.8
X137.7Y-179.4
X137.7Y-182.6
X137.7Y-183.2
X137.7Y-183.8
X137.7Y-184.4
X137.75Y-99.25
X137.75Y-103.5
X137.75Y-113.25
X137.75Y-136.5
X137.8Y-90.75
X138.1Y-46.6
X138.3Y-68.25
X138.4Y-90.75
X138.5Y-30.0
X138.5Y-150.75
X138.7Y-46.6
X138.75Y-123.5
X138.75Y-147.0
X138.9Y-68.25
X139.0Y-76.5
X139.0Y-80.5
X139.0Y-90.75
X139.0Y-127.25
X139.05Y-193.6
X139.1Y-187.6
X139.25Y-58.75
X139.3Y-46.6
X139.5Y-55.0
X139.5Y-68.25
X139.5Y-203.0
X139.6Y-90.75
X139.7Y-168.6
X139.75Y-99.25
X139.75Y-103.5
X140.0Y-211.5
X140.0Y-221.5
X140.22Y-38.02
X140.5Y-150.75
X140.75Y-123.5
X140.75Y-147.0
X141.0Y-35.0
X141.0Y-76.5
X141.0Y-80.5
X141.0Y-127.25
X141.05Y-193.6
X141.1Y-187.6
X141.25Y-58.75
X141.45Y-68.25
X141.5Y-46.6
X141.5Y-55.0
X141.55Y-90.75
X141.7Y-168.6
X141.75Y-99.25
X141.75Y-103.5
X142.0Y-208.0
X142.05Y-68.25
X142.1Y-46.6
X142.15Y-90.75
X142.5Y-150.75
X142.5Y-216.5
X142.65Y-68.25
X142.7Y-46.6
X142.75Y-90.75
X142.75Y-123.5
X142.75Y-147.0
X142.9Y-156.4
X143.0Y-76.5
X143.0Y-80.5
X143.0Y-127.25
X143.05Y-193.6
X143.1Y-187.6
X143.25Y-58.75
X143.25Y-68.25
X143.3Y-46.6
X143.35Y-90.75
X143.5Y-30.0
X143.5Y-55.0
X143.5Y-156.4
X143.7Y-168.6
X143.75Y-99.25
X143.75Y-103.5
X144.1Y-156.4
X144.5Y-150.75
X144.5Y-203.0
X144.7Y-156.4
X144.75Y-123.5
X144.75Y-147.0
X145.0Y-76.5
X145.0Y-80.5
X145.0Y-127.25
X145.0Y-211.5
X145.0Y-221.5
X145.05Y-193.6
X145.1Y-187.6
X145.25Y-58.75
X145.45Y-68.25
X145.5Y-55.0
X145.7Y-168.6
X145.75Y-99.25
X145.75Y-103.5
X145.8Y-90.8
X146.0Y-35.0
X146.05Y-68.25
X146.4Y-90.8
X146.5Y-150.75
X146.6Y-46.6
X146.65Y-68.25
X147.0Y-90.8
X147.0Y-123.5
X147.0Y-127.25
X147.0Y-147.0
X147.0Y-208.0
X147.05Y-193.6
X147.1Y-187.6
X147.2Y-46.6
X147.25Y-58.75
X147.25Y-68.25
X147.25Y-76.5
X147.25Y-80.5
X147.5Y-55.0
X147.5Y-216.5
X147.6Y-90.8
X147.75Y-99.25
X147.8Y-46.6
X147.95Y-168.6
X148.0Y-103.5
X148.1Y-156.4
X148.4Y-46.6
X148.5Y-30.0
X148.5Y-150.75
X148.7Y-156.4
X149.0Y-123.5
X149.0Y-127.25
X149.0Y-147.0
X149.05Y-193.6
X149.1Y-187.6
X149.25Y-58.75
X149.25Y-76.5
X149.25Y-80.5
X149.3Y-156.4
X149.5Y-55.0
X149.5Y-203.0
X149.75Y-99.25
X149.9Y-156.4
X149.95Y-168.6
X150.0Y-47.25
X150.0Y-103.5
X150.0Y-114.75
X150.0Y-138.0
X150.0Y-211.5
X150.0Y-221.5
X150.25Y-92.0
X150.5Y-69.25
X150.75Y-150.75
X151.0Y-35.0
X151.0Y-123.5
X151.0Y-147.0
X151.05Y-193.6
X151.1Y-187.6
X151.25Y-58.75
X151.25Y-76.5
X151.25Y-80.5
X151.25Y-127.25
X151.5Y-55.0
X151.75Y-99.25
X151.95Y-168.6
X152.0Y-103.5
X152.0Y-208.0
X152.5Y-42.25
X152.5Y-109.75
X152.5Y-133.0
X152.5Y-216.5
X152.75Y-87.0
X152.75Y-150.75
X153.0Y-38.02
X153.0Y-64.25
X153.0Y-123.5
X153.0Y-147.0
X153.05Y-193.6
X153.1Y-187.6
X153.25Y-58.75
X153.25Y-76.5
X153.25Y-80.5
X153.25Y-127.25
X153.5Y-30.0
X153.5Y-55.0
X153.75Y-99.25
X153.95Y-168.6
X154.0Y-103.5
X154.75Y-150.75
X155.0Y-47.25
X155.0Y-114.75
X155.0Y-123.5
X155.0Y-138.0
X155.0Y-147.0
X155.0Y-221.5
X155.05Y-193.6
X155.1Y-187.6
X155.25Y-58.75
X155.25Y-76.5
X155.25Y-80.5
X155.25Y-92.0
X155.25Y-127.25
X155.5Y-55.0
X155.5Y-69.25
X155.75Y-99.25
X155.95Y-168.6
X156.0Y-35.0
X156.0Y-103.5
X156.75Y-150.75
X157.0Y-123.5
X157.0Y-147.0
X157.0Y-208.0
X157.05Y-193.6
X157.1Y-187.6
X157.25Y-58.75
X157.25Y-76.5
X157.25Y-80.5
X157.25Y-127.25
X157.5Y-42.25
X157.5Y-55.0
X157.5Y-109.75
X157.5Y-133.0
X157.75Y-87.0
X157.75Y-99.25
X157.95Y-168.6
X158.0Y-38.02
X158.0Y-64.25
X158.0Y-103.5
X158.5Y-30.0
X158.75Y-150.75
X159.05Y-193.6
X159.1Y-187.6
X159.25Y-58.75
X159.25Y-127.25
X159.5Y-55.0
X159.5Y-76.5
X159.5Y-80.5
X159.75Y-99.25
X160.0Y-221.5
X160.25Y-103.5
X160.75Y-150.75
X161.05Y-193.6
X161.1Y-187.6
X161.25Y-58.75
X161.25Y-127.25
X161.5Y-80.5
X162.0Y-208.0
X162.25Y-103.5
X162.5Y-64.25
X162.5Y-216.5
X163.5Y-30.0
X165.0Y-211.5
X165.0Y-221.5
X165.25Y-58.75
X166.0Y-35.0
X167.0Y-208.0
X167.3Y-193.6
X167.35Y-183.85
X167.5Y-216.5
X168.0Y-196.0
X168.0Y-198.0
X168.0Y-200.0
X168.0Y-202.25
X168.0Y-204.25
X168.5Y-30.0
X168.85Y-191.85
X169.1Y-182.6
X169.25Y-187.5
X170.0Y-211.5
X170.0Y-221.5
X170.6Y-190.6
X171.0Y-35.0
X171.0Y-181.0
X171.25Y-187.5
X172.5Y-189.0
X172.5Y-216.5
X172.75Y-179.25
X173.295Y-164.862
X173.5Y-30.0
X173.5Y-40.0
X173.5Y-50.0
X173.5Y-60.0
X173.5Y-65.0
X173.5Y-70.0
X173.5Y-75.0
X173.5Y-80.0
X173.5Y-85.0
X173.5Y-95.0
X173.5Y-100.0
X173.5Y-105.0
X173.5Y-110.0
X173.5Y-120.0
X173.5Y-125.0
X173.5Y-130.0
X173.5Y-135.0
X173.5Y-140.3
X173.5Y-145.0
X173.5Y-150.0
X173.5Y-155.0
X173.5Y-162.0
X173.5Y-170.0
X173.5Y-175.0
X173.5Y-187.5
X174.5Y-178.0
X175.0Y-211.5
X175.0Y-221.5
X175.25Y-182.5
X175.5Y-187.5
X176.0Y-35.0
X176.0Y-196.0
X176.0Y-198.0
X176.0Y-200.0
X176.0Y-202.25
X176.0Y-204.25
X176.069Y-54.731
X177.0Y-208.0
X177.25Y-182.5
X177.5Y-187.5
X177.5Y-216.5
X178.5Y-30.0
X180.0Y-211.5
X180.0Y-221.5
X181.0Y-35.0
X182.0Y-208.0
X182.5Y-216.5
X183.5Y-30.0
X183.5Y-51.0
X183.5Y-56.0
X183.5Y-61.0
X183.5Y-66.0
X183.5Y-71.0
X183.5Y-76.0
X183.5Y-81.0
X183.5Y-86.0
X183.5Y-94.0
X183.5Y-99.0
X183.5Y-104.0
X183.5Y-109.0
X183.5Y-119.0
X183.5Y-124.0
X183.5Y-129.0
X183.5Y-134.0
X183.5Y-139.0
X183.5Y-144.0
X183.5Y-149.0
X183.5Y-154.0
X183.5Y-164.0
X183.5Y-169.0
X183.5Y-174.0
X183.5Y-179.0
X183.5Y-182.5
X183.5Y-184.5
X183.5Y-186.5
X183.5Y-188.5
X183.5Y-190.75
X183.5Y-192.75
X183.8Y-115.0
X184.5Y-48.0
X184.5Y-69.0
X184.5Y-91.0
X184.5Y-115.0
X184.5Y-159.0
X185.0Y-211.5
X185.0Y-221.5
X185.5Y-73.5
X185.5Y-78.5
X185.5Y-83.5
X185.5Y-88.5
X185.5Y-137.0
X185.5Y-141.5
X185.5Y-146.5
X185.5Y-151.5
X186.5Y-53.0
X186.5Y-58.0
X186.5Y-63.0
X186.5Y-68.0
X187.0Y-162.0
X187.0Y-167.0
X187.0Y-172.0
X187.0Y-177.0
X187.0Y-208.0
X187.25Y-182.25
X187.5Y-216.5
X189.5Y-39.5
X190.0Y-221.5
X193.0Y-119.0
X193.0Y-124.0
X193.0Y-129.0
X193.0Y-134.0
X193.0Y-139.0
X193.0Y-144.0
X193.0Y-149.0
X193.0Y-154.0
X193.0Y-159.0
X193.0Y-164.0
X193.0Y-169.0
X193.0Y-174.0
X193.0Y-179.0
X194.5Y-192.0
X194.5Y-197.0
X196.0Y-37.0
X196.0Y-42.0
X196.0Y-47.0
X196.0Y-52.0
X196.0Y-57.0
X196.0Y-62.0
X196.0Y-67.0
X196.0Y-72.0
X196.0Y-77.0
X196.0Y-82.0
X196.0Y-87.0
X196.0Y-92.0
X196.0Y-97.0
X196.0Y-102.0
X196.0Y-107.0
X196.0Y-112.0
X196.0Y-117.0
X196.0Y-122.0
X196.0Y-127.0
X196.0Y-132.0
X196.0Y-137.0
X196.0Y-142.0
X196.0Y-147.0
X196.0Y-152.0
X196.0Y-157.0
X196.0Y-162.0
X196.0Y-167.0
X196.0Y-172.0
X196.0Y-177.0
X196.0Y-182.0
X196.0Y-187.0
X196.0Y-192.0
T2
X29.0Y-169.0
X29.0Y-172.0
X29.0Y-175.0
X29.0Y-178.0
X29.0Y-181.0
X29.0Y-184.0
X29.0Y-187.0
X180.0Y-184.0
X180.0Y-187.0
X180.0Y-190.0
X180.0Y-193.0
X180.0Y-196.0
T3
X16.375Y-33.144
X16.375Y-218.0
X17.144Y-31.288
X17.144Y-35.0
X17.144Y-216.144
X17.144Y-219.856
X19.0Y-30.519
X19.0Y-35.769
X19.0Y-215.375
X19.0Y-220.625
X20.856Y-31.288
X20.856Y-35.0
X20.856Y-216.144
X20.856Y-219.856
X21.625Y-33.144
X21.625Y-218.0
X23.25Y-212.625
X24.019Y-210.769
X24.019Y-214.481
X25.875Y-210.0
X25.875Y-215.25
X27.731Y-210.769
X27.731Y-214.481
X28.5Y-212.625
X50.75Y-212.625
X51.519Y-210.769
X51.519Y-214.481
X53.375Y-210.0
X53.375Y-215.25
X55.231Y-210.769
X55.231Y-214.481
X56.0Y-212.625
X154.75Y-212.5
X155.519Y-210.644
X155.519Y-214.356
X157.375Y-209.875
X157.375Y-215.125
X159.231Y-210.644
X159.231Y-214.356
X160.0Y-212.5
X182.5Y-212.5
X183.269Y-210.644
X183.269Y-214.356
X185.125Y-209.875
X185.125Y-215.125
X186.981Y-210.644
X186.981Y-214.356
X187.75Y-212.5
X190.375Y-33.144
X190.375Y-217.625
X191.144Y-31.288
X191.144Y-35.0
X191.144Y-215.769
X191.144Y-219.481
X193.0Y-30.519
X193.0Y-35.769
X193.0Y-215.0
X193.0Y-220.25
X194.856Y-31.288
X194.856Y-35.0
X194.856Y-215.769
X194.856Y-219.481
X195.625Y-33.144
X195.625Y-217.625
T4
X187.96Y-111.0
X187.96Y-113.54
X187.96Y-116.08
X187.96Y-118.62
X187.96Y-121.16
X190.5Y-111.0
X190.5Y-113.54
X190.5Y-116.08
X190.5Y-118.62
X190.5Y-121.16
T5
X31.927Y-62.0
X31.927Y-74.0
X32.3Y-85.0
X32.3Y-97.0
X32.428Y-178.0
X32.428Y-190.0
X32.5Y-40.0
X32.5Y-52.0
X32.5Y-131.25
X32.5Y-143.25
X32.5Y-154.5
X32.5Y-166.5
X32.55Y-108.25
X32.55Y-120.25
X44.127Y-62.0
X44.127Y-74.0
X44.5Y-85.0
X44.5Y-97.0
X44.627Y-178.0
X44.627Y-190.0
X44.7Y-40.0
X44.7Y-52.0
X44.7Y-131.25
X44.7Y-143.25
X44.7Y-154.5
X44.7Y-166.5
X44.75Y-108.25
X44.75Y-120.25
X46.127Y-68.0
X46.5Y-91.0
X46.627Y-184.0
X46.7Y-46.0
X46.7Y-137.25
X46.7Y-160.5
X46.75Y-114.25
X162.373Y-160.5
X162.373Y-184.0
X162.5Y-68.0
X162.5Y-91.0
X162.55Y-114.0
X162.623Y-137.25
X162.873Y-47.0
X164.373Y-154.5
X164.373Y-166.5
X164.373Y-178.0
X164.373Y-190.0
X164.5Y-62.0
X164.5Y-74.0
X164.5Y-85.0
X164.5Y-97.0
X164.55Y-108.0
X164.55Y-120.0
X164.623Y-131.25
X164.623Y-143.25
X164.873Y-41.0
X164.873Y-53.0
X176.572Y-154.5
X176.572Y-166.5
X176.572Y-178.0
X176.572Y-190.0
X176.7Y-62.0
X176.7Y-74.0
X176.7Y-85.0
X176.7Y-97.0
X176.75Y-108.0
X176.75Y-120.0
X176.822Y-131.25
X176.822Y-143.25
X177.072Y-41.0
X177.072Y-53.0
T6
X19.0Y-197.42
X19.0Y-202.5
X21.54Y-199.96
X24.08Y-197.42
X24.08Y-202.5
X186.46Y-197.46
X186.46Y-202.54
X189.0Y-200.0
X191.54Y-197.46
X191.54Y-202.54
T7
X59.5Y-156.905
X61.25Y-120.75
X61.25Y-144.25
X61.5Y-53.0
X61.5Y-74.5
X61.5Y-97.0
X63.095Y-196.973
X71.095Y-179.973
X75.25Y-107.75
X75.25Y-131.25
X75.5Y-40.0
X75.5Y-61.5
X75.5Y-84.0
X79.5Y-164.905
X95.5Y-191.5
X98.5Y-52.5
X98.5Y-75.0
X98.5Y-98.0
X98.5Y-121.0
X98.5Y-144.25
X99.405Y-175.0
X107.405Y-157.0
X112.5Y-39.5
X112.5Y-62.0
X112.5Y-85.0
X112.5Y-108.0
X112.5Y-131.25
X115.5Y-199.5
X127.5Y-156.595
X134.5Y-53.0
X134.5Y-75.0
X134.5Y-98.0
X134.5Y-121.0
X134.5Y-144.25
X137.5Y-198.0
X145.5Y-181.0
X146.5Y-164.595
X148.5Y-40.0
X148.5Y-62.0
X148.5Y-85.0
X148.5Y-108.0
X148.5Y-131.25
T8
X19.0Y-33.144
X19.0Y-218.0
X25.875Y-212.625
X53.375Y-212.625
X157.375Y-212.5
X185.125Y-212.5
X193.0Y-33.144
X193.0Y-217.625
M30
