G04 #@! TF.GenerationSoftware,KiCad,Pcbnew,8.0.4*
G04 #@! TF.CreationDate,2024-11-18T14:28:34+01:00*
G04 #@! TF.ProjectId,Zolotarev,5a6f6c6f-7461-4726-9576-2e6b69636164,rev?*
G04 #@! TF.SameCoordinates,Original*
G04 #@! TF.FileFunction,Paste,Bot*
G04 #@! TF.FilePolarity,Positive*
%FSLAX46Y46*%
G04 Gerber Fmt 4.6, Leading zero omitted, Abs format (unit mm)*
G04 Created by KiCad (PCBNEW 8.0.4) date 2024-11-18 14:28:34*
%MOMM*%
%LPD*%
G01*
G04 APERTURE LIST*
G04 Aperture macros list*
%AMRoundRect*
0 Rectangle with rounded corners*
0 $1 Rounding radius*
0 $2 $3 $4 $5 $6 $7 $8 $9 X,Y pos of 4 corners*
0 Add a 4 corners polygon primitive as box body*
4,1,4,$2,$3,$4,$5,$6,$7,$8,$9,$2,$3,0*
0 Add four circle primitives for the rounded corners*
1,1,$1+$1,$2,$3*
1,1,$1+$1,$4,$5*
1,1,$1+$1,$6,$7*
1,1,$1+$1,$8,$9*
0 Add four rect primitives between the rounded corners*
20,1,$1+$1,$2,$3,$4,$5,0*
20,1,$1+$1,$4,$5,$6,$7,0*
20,1,$1+$1,$6,$7,$8,$9,0*
20,1,$1+$1,$8,$9,$2,$3,0*%
%AMRotRect*
0 Rectangle, with rotation*
0 The origin of the aperture is its center*
0 $1 length*
0 $2 width*
0 $3 Rotation angle, in degrees counterclockwise*
0 Add horizontal line*
21,1,$1,$2,0,0,$3*%
G04 Aperture macros list end*
%ADD10R,3.500000X2.000000*%
%ADD11RoundRect,0.250000X-0.900000X1.500000X-0.900000X-1.500000X0.900000X-1.500000X0.900000X1.500000X0*%
%ADD12RoundRect,0.250000X0.900000X-1.500000X0.900000X1.500000X-0.900000X1.500000X-0.900000X-1.500000X0*%
%ADD13RoundRect,0.250000X0.088388X-0.548008X0.548008X-0.088388X-0.088388X0.548008X-0.548008X0.088388X0*%
%ADD14RoundRect,0.250000X0.475000X-0.337500X0.475000X0.337500X-0.475000X0.337500X-0.475000X-0.337500X0*%
%ADD15RoundRect,0.250000X-0.088388X0.548008X-0.548008X0.088388X0.088388X-0.548008X0.548008X-0.088388X0*%
%ADD16RoundRect,0.250000X-0.475000X0.337500X-0.475000X-0.337500X0.475000X-0.337500X0.475000X0.337500X0*%
%ADD17RoundRect,0.250000X-0.325000X-0.450000X0.325000X-0.450000X0.325000X0.450000X-0.325000X0.450000X0*%
%ADD18R,2.000000X3.500000*%
%ADD19RoundRect,0.250000X-0.450000X0.325000X-0.450000X-0.325000X0.450000X-0.325000X0.450000X0.325000X0*%
%ADD20RoundRect,0.250000X-0.548008X-0.088388X-0.088388X-0.548008X0.548008X0.088388X0.088388X0.548008X0*%
%ADD21RotRect,2.000000X3.500000X225.000000*%
%ADD22RoundRect,0.250000X0.548008X0.088388X0.088388X0.548008X-0.548008X-0.088388X-0.088388X-0.548008X0*%
%ADD23RoundRect,0.250000X0.450000X-0.325000X0.450000X0.325000X-0.450000X0.325000X-0.450000X-0.325000X0*%
G04 APERTURE END LIST*
D10*
X82096000Y-162500000D03*
X82096000Y-158500000D03*
D11*
X165800000Y-157700000D03*
X165800000Y-163100000D03*
D12*
X43300000Y-48500000D03*
X43300000Y-43100000D03*
D13*
X47275216Y-151924784D03*
X48724784Y-150475216D03*
D10*
X102600000Y-62000000D03*
X102600000Y-58000000D03*
X62096000Y-159500000D03*
X62096000Y-163500000D03*
D14*
X44500000Y-82075000D03*
X44500000Y-80000000D03*
D10*
X69500000Y-51000000D03*
X69500000Y-47000000D03*
X88800000Y-87000000D03*
X88800000Y-91000000D03*
D13*
X46875216Y-175124784D03*
X48324784Y-173675216D03*
D10*
X108500000Y-64500000D03*
X108500000Y-68500000D03*
X61500000Y-141250000D03*
X61500000Y-137250000D03*
X72404000Y-91000000D03*
X72404000Y-87000000D03*
X116500000Y-42000000D03*
X116500000Y-46000000D03*
D15*
X168524784Y-153275216D03*
X167075216Y-154724784D03*
D10*
X142500000Y-73750000D03*
X142500000Y-69750000D03*
D14*
X162500000Y-83000000D03*
X162500000Y-80925000D03*
D12*
X43500000Y-186900000D03*
X43500000Y-181500000D03*
D14*
X164900000Y-38637500D03*
X164900000Y-36562500D03*
D16*
X164900000Y-55362500D03*
X164900000Y-57437500D03*
D10*
X147600000Y-52000000D03*
X147600000Y-48000000D03*
D17*
X47575000Y-130000000D03*
X49625000Y-130000000D03*
D10*
X69750000Y-115750000D03*
X69750000Y-111750000D03*
X93000000Y-194000000D03*
X93000000Y-198000000D03*
D17*
X40775000Y-99200000D03*
X42825000Y-99200000D03*
D10*
X142500000Y-96000000D03*
X142500000Y-92000000D03*
D16*
X164500000Y-99962500D03*
X164500000Y-102037500D03*
D11*
X165500000Y-134550000D03*
X165500000Y-139950000D03*
D10*
X112904000Y-197000000D03*
X112904000Y-193000000D03*
X138500000Y-73750000D03*
X138500000Y-69750000D03*
X143904000Y-162000000D03*
X143904000Y-158000000D03*
X67500000Y-158500000D03*
X67500000Y-162500000D03*
X57000000Y-159500000D03*
X57000000Y-163500000D03*
D14*
X44750000Y-37787500D03*
X44750000Y-35712500D03*
D16*
X164500000Y-122462500D03*
X164500000Y-124537500D03*
D11*
X165500000Y-65300000D03*
X165500000Y-70700000D03*
X165500000Y-88300000D03*
X165500000Y-93700000D03*
D16*
X46300000Y-192562500D03*
X46300000Y-194637500D03*
D18*
X73000000Y-176500000D03*
X77000000Y-176500000D03*
D17*
X40775000Y-75800000D03*
X42825000Y-75800000D03*
D18*
X143000000Y-178500000D03*
X139000000Y-178500000D03*
D16*
X46500000Y-169162500D03*
X46500000Y-171237500D03*
D10*
X79500000Y-43000000D03*
X79500000Y-47000000D03*
X59800000Y-92600000D03*
X59800000Y-88600000D03*
X77500000Y-91000000D03*
X77500000Y-87000000D03*
X82800000Y-64500000D03*
X82800000Y-68500000D03*
X104500000Y-64500000D03*
X104500000Y-68500000D03*
X51100000Y-47000000D03*
X51100000Y-43000000D03*
D14*
X44500000Y-105537500D03*
X44500000Y-103462500D03*
D10*
X92400000Y-87000000D03*
X92400000Y-91000000D03*
D18*
X96200000Y-119000000D03*
X92199998Y-119000000D03*
D13*
X160675216Y-147124784D03*
X162124784Y-145675216D03*
D15*
X167524784Y-81875216D03*
X166075216Y-83324784D03*
D14*
X162500000Y-60977500D03*
X162500000Y-58902500D03*
D19*
X185500000Y-92950000D03*
X185500000Y-95000000D03*
D10*
X65500000Y-51000000D03*
X65500000Y-47000000D03*
D17*
X46775000Y-60200000D03*
X48825000Y-60200000D03*
D16*
X46500000Y-99000000D03*
X46500000Y-101075000D03*
D10*
X61250000Y-71500000D03*
X61250000Y-67500000D03*
X77000000Y-162500000D03*
X77000000Y-158500000D03*
X85200000Y-87000000D03*
X85200000Y-91000000D03*
X55000000Y-48000000D03*
X55000000Y-44000000D03*
D14*
X162500000Y-106037500D03*
X162500000Y-103962500D03*
D10*
X86600000Y-64500000D03*
X86600000Y-68500000D03*
X79000000Y-64500000D03*
X79000000Y-68500000D03*
D15*
X167800000Y-59000000D03*
X166350432Y-60449568D03*
D10*
X120500000Y-42000000D03*
X120500000Y-46000000D03*
X83000000Y-111750000D03*
X83000000Y-115750000D03*
D13*
X161000000Y-123600000D03*
X162449568Y-122150432D03*
D10*
X115000000Y-134400000D03*
X115000000Y-138400000D03*
D13*
X161400000Y-56600000D03*
X162849568Y-55150432D03*
D10*
X109500000Y-88000000D03*
X109500000Y-92000000D03*
D18*
X94800000Y-100400000D03*
X90800000Y-100400000D03*
X143000000Y-183596000D03*
X139000000Y-183596000D03*
D10*
X75000000Y-111750000D03*
X75000000Y-115750000D03*
X130500000Y-96000000D03*
X130500000Y-92000000D03*
D16*
X46500000Y-122712500D03*
X46500000Y-124787500D03*
D10*
X83000000Y-134750000D03*
X83000000Y-138750000D03*
X117600000Y-63600000D03*
X117600000Y-59600000D03*
D17*
X41175000Y-122000000D03*
X43225000Y-122000000D03*
D10*
X67000000Y-68500000D03*
X67000000Y-64500000D03*
X83500000Y-43000000D03*
X83500000Y-47000000D03*
X118000000Y-197000000D03*
X118000000Y-193000000D03*
D15*
X167924784Y-128075216D03*
X166475216Y-129524784D03*
D10*
X137000000Y-141250000D03*
X137000000Y-137250000D03*
D18*
X94200000Y-73400000D03*
X90199998Y-73400000D03*
D10*
X71000000Y-68500000D03*
X71000000Y-64500000D03*
X146800000Y-96000000D03*
X146800000Y-92000000D03*
X98096000Y-194000000D03*
X98096000Y-198000000D03*
X73000000Y-51000000D03*
X73000000Y-47000000D03*
D15*
X168324784Y-37875216D03*
X166875216Y-39324784D03*
D18*
X104500000Y-164000000D03*
X100500000Y-164000000D03*
X73102000Y-183823000D03*
X77102000Y-183823000D03*
X104500000Y-154596000D03*
X100500000Y-154596000D03*
D10*
X64400000Y-117600000D03*
X64400000Y-113600000D03*
X119400000Y-134600000D03*
X119400000Y-138600000D03*
D16*
X164300000Y-169162500D03*
X164300000Y-171237500D03*
X164300000Y-192762500D03*
X164300000Y-194837500D03*
D10*
X56600000Y-51400000D03*
X56600000Y-55400000D03*
X119400000Y-111200000D03*
X119400000Y-115200000D03*
X56200000Y-117800000D03*
X56200000Y-113800000D03*
D20*
X185550432Y-70050432D03*
X187000000Y-71500000D03*
D10*
X149000000Y-162000000D03*
X149000000Y-158000000D03*
D15*
X167724784Y-105075216D03*
X166275216Y-106524784D03*
D10*
X73000000Y-162500000D03*
X73000000Y-158500000D03*
X59100000Y-49200000D03*
X59100000Y-45200000D03*
X121400000Y-63600000D03*
X121400000Y-59600000D03*
X126800000Y-52000000D03*
X126800000Y-48000000D03*
D12*
X43400000Y-163500000D03*
X43400000Y-158100000D03*
D10*
X110000000Y-134500000D03*
X110000000Y-138500000D03*
X115096000Y-111250000D03*
X115096000Y-115250000D03*
D17*
X40975000Y-145000000D03*
X43025000Y-145000000D03*
D13*
X160875216Y-77524784D03*
X162324784Y-76075216D03*
D10*
X71500000Y-138500000D03*
X71500000Y-134500000D03*
X52200000Y-92600000D03*
X52200000Y-88600000D03*
X116600000Y-40000000D03*
X116600000Y-36000000D03*
X119000000Y-88000000D03*
X119000000Y-92000000D03*
X78750000Y-134750000D03*
X78750000Y-138750000D03*
X138400000Y-52000000D03*
X138400000Y-48000000D03*
D16*
X164750000Y-145962500D03*
X164750000Y-148037500D03*
D14*
X162700000Y-175437500D03*
X162700000Y-173362500D03*
X44250000Y-59500000D03*
X44250000Y-57425000D03*
D10*
X87000000Y-111750000D03*
X87000000Y-115750000D03*
X126250000Y-73750000D03*
X126250000Y-69750000D03*
X75000000Y-68500000D03*
X75000000Y-64500000D03*
D12*
X42900000Y-70700000D03*
X42900000Y-65300000D03*
D10*
X106400000Y-62000000D03*
X106400000Y-58000000D03*
D21*
X94614214Y-51585786D03*
X91785786Y-54414214D03*
D14*
X44700000Y-175237500D03*
X44700000Y-173162500D03*
D10*
X130250000Y-73750000D03*
X130250000Y-69750000D03*
X60200000Y-117800000D03*
X60200000Y-113800000D03*
D11*
X166500000Y-44300000D03*
X166500000Y-49700000D03*
D10*
X131654000Y-118000000D03*
X131654000Y-114000000D03*
X138500000Y-96000000D03*
X138500000Y-92000000D03*
D22*
X187500000Y-51000000D03*
X186050432Y-49550432D03*
D14*
X162500000Y-128787500D03*
X162500000Y-126712500D03*
D17*
X159775000Y-190000000D03*
X161825000Y-190000000D03*
D10*
X52600000Y-50200000D03*
X52600000Y-54200000D03*
X116250000Y-64500000D03*
X116250000Y-68500000D03*
D11*
X165500000Y-111300000D03*
X165500000Y-116700000D03*
D10*
X108400000Y-39800000D03*
X108400000Y-35800000D03*
D17*
X40775000Y-52200000D03*
X42825000Y-52200000D03*
D15*
X188700000Y-180800000D03*
X187250432Y-182249568D03*
D16*
X46500000Y-145712500D03*
X46500000Y-147787500D03*
D17*
X47375000Y-107200000D03*
X49425000Y-107200000D03*
D10*
X57500000Y-140750000D03*
X57500000Y-136750000D03*
D23*
X185600000Y-135725000D03*
X185600000Y-133675000D03*
D10*
X110000000Y-111250000D03*
X110000000Y-115250000D03*
X102000000Y-194000000D03*
X102000000Y-198000000D03*
D14*
X162700000Y-152237500D03*
X162700000Y-150162500D03*
D13*
X185675216Y-157824784D03*
X187124784Y-156375216D03*
D10*
X57250000Y-70750000D03*
X57250000Y-66750000D03*
D13*
X160475216Y-170200000D03*
X161924784Y-168750432D03*
X160600000Y-100800000D03*
X162049568Y-99350432D03*
D14*
X44700000Y-151837500D03*
X44700000Y-149762500D03*
D10*
X130600000Y-52000000D03*
X130600000Y-48000000D03*
X53250000Y-69750000D03*
X53250000Y-65750000D03*
X120250000Y-64500000D03*
X120250000Y-68500000D03*
X79000000Y-111750000D03*
X79000000Y-115750000D03*
D15*
X168524784Y-176675216D03*
X167075216Y-178124784D03*
D12*
X43500000Y-139950000D03*
X43500000Y-134550000D03*
D11*
X165500000Y-181500000D03*
X165500000Y-186900000D03*
D12*
X43500000Y-116950000D03*
X43500000Y-111550000D03*
D23*
X192600000Y-106624999D03*
X192600000Y-104575001D03*
D17*
X46600000Y-39000000D03*
X48650000Y-39000000D03*
D19*
X184400000Y-115075000D03*
X184400000Y-117125000D03*
D17*
X40975000Y-191800000D03*
X43025000Y-191800000D03*
D10*
X131904000Y-141250000D03*
X131904000Y-137250000D03*
D12*
X43300000Y-93700000D03*
X43300000Y-88300000D03*
D10*
X146500000Y-73750000D03*
X146500000Y-69750000D03*
X142600000Y-52000000D03*
X142600000Y-48000000D03*
X108500000Y-42000000D03*
X108500000Y-46000000D03*
D21*
X92000000Y-49000000D03*
X89171572Y-51828428D03*
D18*
X94800001Y-96600000D03*
X90799999Y-96600000D03*
D16*
X164500000Y-77000000D03*
X164500000Y-79075000D03*
X47750000Y-53212500D03*
X47750000Y-55287500D03*
D18*
X94200000Y-77200000D03*
X90200000Y-77200000D03*
D14*
X44500000Y-128537500D03*
X44500000Y-126462500D03*
D10*
X114596000Y-88000000D03*
X114596000Y-92000000D03*
D17*
X47175000Y-83200000D03*
X49225000Y-83200000D03*
D10*
X81750000Y-87000000D03*
X81750000Y-91000000D03*
D17*
X41175000Y-168400000D03*
X43225000Y-168400000D03*
D10*
X123000000Y-88000000D03*
X123000000Y-92000000D03*
X56000000Y-92600000D03*
X56000000Y-88600000D03*
X87400000Y-43000000D03*
X87400000Y-47000000D03*
D18*
X104500000Y-150500000D03*
X100500000Y-150500000D03*
D10*
X136750000Y-118000000D03*
X136750000Y-114000000D03*
D18*
X104500000Y-159692000D03*
X100500000Y-159692000D03*
D16*
X47000000Y-74212500D03*
X47000000Y-76287500D03*
D10*
X71000000Y-187000000D03*
X71000000Y-191000000D03*
M02*
