G04 #@! TF.GenerationSoftware,KiCad,Pcbnew,8.0.4*
G04 #@! TF.CreationDate,2024-11-18T14:28:34+01:00*
G04 #@! TF.ProjectId,Zolotarev,5a6f6c6f-7461-4726-9576-2e6b69636164,rev?*
G04 #@! TF.SameCoordinates,Original*
G04 #@! TF.FileFunction,Soldermask,Bot*
G04 #@! TF.FilePolarity,Negative*
%FSLAX46Y46*%
G04 Gerber Fmt 4.6, Leading zero omitted, Abs format (unit mm)*
G04 Created by KiCad (PCBNEW 8.0.4) date 2024-11-18 14:28:34*
%MOMM*%
%LPD*%
G01*
G04 APERTURE LIST*
G04 Aperture macros list*
%AMRoundRect*
0 Rectangle with rounded corners*
0 $1 Rounding radius*
0 $2 $3 $4 $5 $6 $7 $8 $9 X,Y pos of 4 corners*
0 Add a 4 corners polygon primitive as box body*
4,1,4,$2,$3,$4,$5,$6,$7,$8,$9,$2,$3,0*
0 Add four circle primitives for the rounded corners*
1,1,$1+$1,$2,$3*
1,1,$1+$1,$4,$5*
1,1,$1+$1,$6,$7*
1,1,$1+$1,$8,$9*
0 Add four rect primitives between the rounded corners*
20,1,$1+$1,$2,$3,$4,$5,0*
20,1,$1+$1,$4,$5,$6,$7,0*
20,1,$1+$1,$6,$7,$8,$9,0*
20,1,$1+$1,$8,$9,$2,$3,0*%
%AMRotRect*
0 Rectangle, with rotation*
0 The origin of the aperture is its center*
0 $1 length*
0 $2 width*
0 $3 Rotation angle, in degrees counterclockwise*
0 Add horizontal line*
21,1,$1,$2,0,0,$3*%
G04 Aperture macros list end*
%ADD10C,0.800000*%
%ADD11C,7.000000*%
%ADD12R,2.500000X2.500000*%
%ADD13O,2.500000X2.500000*%
%ADD14C,4.000000*%
%ADD15C,1.998980*%
%ADD16C,2.499360*%
%ADD17RoundRect,0.250000X-0.600000X-0.600000X0.600000X-0.600000X0.600000X0.600000X-0.600000X0.600000X0*%
%ADD18C,1.700000*%
%ADD19R,3.500000X2.000000*%
%ADD20RoundRect,0.250000X-0.900000X1.500000X-0.900000X-1.500000X0.900000X-1.500000X0.900000X1.500000X0*%
%ADD21RoundRect,0.250000X0.900000X-1.500000X0.900000X1.500000X-0.900000X1.500000X-0.900000X-1.500000X0*%
%ADD22RoundRect,0.250000X0.088388X-0.548008X0.548008X-0.088388X-0.088388X0.548008X-0.548008X0.088388X0*%
%ADD23RoundRect,0.250000X0.475000X-0.337500X0.475000X0.337500X-0.475000X0.337500X-0.475000X-0.337500X0*%
%ADD24RoundRect,0.250000X-0.088388X0.548008X-0.548008X0.088388X0.088388X-0.548008X0.548008X-0.088388X0*%
%ADD25RoundRect,0.250000X-0.475000X0.337500X-0.475000X-0.337500X0.475000X-0.337500X0.475000X0.337500X0*%
%ADD26RoundRect,0.250000X-0.325000X-0.450000X0.325000X-0.450000X0.325000X0.450000X-0.325000X0.450000X0*%
%ADD27R,2.000000X3.500000*%
%ADD28RoundRect,0.250000X-0.450000X0.325000X-0.450000X-0.325000X0.450000X-0.325000X0.450000X0.325000X0*%
%ADD29RoundRect,0.250000X-0.548008X-0.088388X-0.088388X-0.548008X0.548008X0.088388X0.088388X0.548008X0*%
%ADD30RotRect,2.000000X3.500000X225.000000*%
%ADD31RoundRect,0.250000X0.548008X0.088388X0.088388X0.548008X-0.548008X-0.088388X-0.088388X-0.548008X0*%
%ADD32RoundRect,0.250000X0.450000X-0.325000X0.450000X0.325000X-0.450000X0.325000X-0.450000X-0.325000X0*%
G04 APERTURE END LIST*
D10*
X23250000Y-212625000D03*
X24018845Y-210768845D03*
X24018845Y-214481155D03*
X25875000Y-210000000D03*
D11*
X25875000Y-212625000D03*
D10*
X25875000Y-215250000D03*
X27731155Y-210768845D03*
X27731155Y-214481155D03*
X28500000Y-212625000D03*
X154750000Y-212500000D03*
X155518845Y-210643845D03*
X155518845Y-214356155D03*
X157375000Y-209875000D03*
D11*
X157375000Y-212500000D03*
D10*
X157375000Y-215125000D03*
X159231155Y-210643845D03*
X159231155Y-214356155D03*
X160000000Y-212500000D03*
X182500000Y-212500000D03*
X183268845Y-210643845D03*
X183268845Y-214356155D03*
X185125000Y-209875000D03*
D11*
X185125000Y-212500000D03*
D10*
X185125000Y-215125000D03*
X186981155Y-210643845D03*
X186981155Y-214356155D03*
X187750000Y-212500000D03*
X50750000Y-212625000D03*
X51518845Y-210768845D03*
X51518845Y-214481155D03*
X53375000Y-210000000D03*
D11*
X53375000Y-212625000D03*
D10*
X53375000Y-215250000D03*
X55231155Y-210768845D03*
X55231155Y-214481155D03*
X56000000Y-212625000D03*
D12*
X46500000Y-91000000D03*
D13*
X44500000Y-85000000D03*
X32300000Y-85000000D03*
X32300000Y-97000000D03*
X44500000Y-97000000D03*
D12*
X162550000Y-114000000D03*
D13*
X164550000Y-120000000D03*
X176750000Y-120000000D03*
X176750000Y-108000000D03*
X164550000Y-108000000D03*
D14*
X134500000Y-121000000D03*
X148500000Y-108000000D03*
D12*
X162500000Y-91000000D03*
D13*
X164500000Y-97000000D03*
X176700000Y-97000000D03*
X176700000Y-85000000D03*
X164500000Y-85000000D03*
D12*
X46700000Y-137250000D03*
D13*
X44700000Y-131250000D03*
X32500000Y-131250000D03*
X32500000Y-143250000D03*
X44700000Y-143250000D03*
D12*
X46627500Y-184000000D03*
D13*
X44627500Y-178000000D03*
X32427500Y-178000000D03*
X32427500Y-190000000D03*
X44627500Y-190000000D03*
D12*
X46700000Y-46000000D03*
D13*
X44700000Y-40000000D03*
X32500000Y-40000000D03*
X32500000Y-52000000D03*
X44700000Y-52000000D03*
D15*
X21540000Y-199960000D03*
D16*
X19000000Y-197420000D03*
X19000000Y-202500000D03*
X24080000Y-197420000D03*
X24080000Y-202500000D03*
D14*
X98500000Y-75000000D03*
X112500000Y-62000000D03*
X134500000Y-144250000D03*
X148500000Y-131250000D03*
X61250000Y-144250000D03*
X75250000Y-131250000D03*
D12*
X162622500Y-137250000D03*
D13*
X164622500Y-143250000D03*
X176822500Y-143250000D03*
X176822500Y-131250000D03*
X164622500Y-131250000D03*
D14*
X134500000Y-53000000D03*
X148500000Y-40000000D03*
X146500000Y-164595000D03*
X127500000Y-156595000D03*
D12*
X46127500Y-68000000D03*
D13*
X44127500Y-62000000D03*
X31927500Y-62000000D03*
X31927500Y-74000000D03*
X44127500Y-74000000D03*
D14*
X61500000Y-97000000D03*
X75500000Y-84000000D03*
D10*
X16375000Y-218000000D03*
X17143845Y-216143845D03*
X17143845Y-219856155D03*
X19000000Y-215375000D03*
D11*
X19000000Y-218000000D03*
D10*
X19000000Y-220625000D03*
X20856155Y-216143845D03*
X20856155Y-219856155D03*
X21625000Y-218000000D03*
D14*
X145500000Y-181000000D03*
X137500000Y-198000000D03*
X98500000Y-144250000D03*
X112500000Y-131250000D03*
X71095000Y-179973458D03*
X63095000Y-196973458D03*
X98500000Y-121000000D03*
X112500000Y-108000000D03*
X61500000Y-53000000D03*
X75500000Y-40000000D03*
D12*
X46700000Y-160500000D03*
D13*
X44700000Y-154500000D03*
X32500000Y-154500000D03*
X32500000Y-166500000D03*
X44700000Y-166500000D03*
D12*
X162500000Y-68000000D03*
D13*
X164500000Y-74000000D03*
X176700000Y-74000000D03*
X176700000Y-62000000D03*
X164500000Y-62000000D03*
D14*
X59500000Y-156905000D03*
X79500000Y-164905000D03*
X61250000Y-120750000D03*
X75250000Y-107750000D03*
D10*
X190375000Y-33143845D03*
X191143845Y-31287690D03*
X191143845Y-35000000D03*
X193000000Y-30518845D03*
D11*
X193000000Y-33143845D03*
D10*
X193000000Y-35768845D03*
X194856155Y-31287690D03*
X194856155Y-35000000D03*
X195625000Y-33143845D03*
D14*
X98500000Y-98000000D03*
X112500000Y-85000000D03*
X99405000Y-175000000D03*
X107405000Y-157000000D03*
D12*
X162872500Y-47000000D03*
D13*
X164872500Y-53000000D03*
X177072500Y-53000000D03*
X177072500Y-41000000D03*
X164872500Y-41000000D03*
D14*
X134500000Y-75000000D03*
X148500000Y-62000000D03*
D10*
X190375000Y-217625000D03*
X191143845Y-215768845D03*
X191143845Y-219481155D03*
X193000000Y-215000000D03*
D11*
X193000000Y-217625000D03*
D10*
X193000000Y-220250000D03*
X194856155Y-215768845D03*
X194856155Y-219481155D03*
X195625000Y-217625000D03*
D12*
X162372500Y-160500000D03*
D13*
X164372500Y-166500000D03*
X176572500Y-166500000D03*
X176572500Y-154500000D03*
X164372500Y-154500000D03*
D12*
X46750000Y-114250000D03*
D13*
X44750000Y-108250000D03*
X32550000Y-108250000D03*
X32550000Y-120250000D03*
X44750000Y-120250000D03*
D17*
X187960000Y-111000000D03*
D18*
X190500000Y-111000000D03*
X187960000Y-113540000D03*
X190500000Y-113540000D03*
X187960000Y-116080000D03*
X190500000Y-116080000D03*
X187960000Y-118620000D03*
X190500000Y-118620000D03*
X187960000Y-121160000D03*
X190500000Y-121160000D03*
D14*
X61500000Y-74500000D03*
X75500000Y-61500000D03*
D10*
X16375000Y-33143845D03*
X17143845Y-31287690D03*
X17143845Y-35000000D03*
X19000000Y-30518845D03*
D11*
X19000000Y-33143845D03*
D10*
X19000000Y-35768845D03*
X20856155Y-31287690D03*
X20856155Y-35000000D03*
X21625000Y-33143845D03*
D14*
X134500000Y-98000000D03*
X148500000Y-85000000D03*
D15*
X189000000Y-200000000D03*
D16*
X186460000Y-197460000D03*
X186460000Y-202540000D03*
X191540000Y-197460000D03*
X191540000Y-202540000D03*
D14*
X95500000Y-191500000D03*
X115500000Y-199500000D03*
D12*
X162372500Y-184000000D03*
D13*
X164372500Y-190000000D03*
X176572500Y-190000000D03*
X176572500Y-178000000D03*
X164372500Y-178000000D03*
D14*
X98500000Y-52500000D03*
X112500000Y-39500000D03*
D19*
X82096000Y-162500000D03*
X82096000Y-158500000D03*
D20*
X165800000Y-157700000D03*
X165800000Y-163100000D03*
D21*
X43300000Y-48500000D03*
X43300000Y-43100000D03*
D22*
X47275216Y-151924784D03*
X48724784Y-150475216D03*
D19*
X102600000Y-62000000D03*
X102600000Y-58000000D03*
X62096000Y-159500000D03*
X62096000Y-163500000D03*
D23*
X44500000Y-82075000D03*
X44500000Y-80000000D03*
D19*
X69500000Y-51000000D03*
X69500000Y-47000000D03*
X88800000Y-87000000D03*
X88800000Y-91000000D03*
D22*
X46875216Y-175124784D03*
X48324784Y-173675216D03*
D19*
X108500000Y-64500000D03*
X108500000Y-68500000D03*
X61500000Y-141250000D03*
X61500000Y-137250000D03*
X72404000Y-91000000D03*
X72404000Y-87000000D03*
X116500000Y-42000000D03*
X116500000Y-46000000D03*
D24*
X168524784Y-153275216D03*
X167075216Y-154724784D03*
D19*
X142500000Y-73750000D03*
X142500000Y-69750000D03*
D23*
X162500000Y-83000000D03*
X162500000Y-80925000D03*
D21*
X43500000Y-186900000D03*
X43500000Y-181500000D03*
D23*
X164900000Y-38637500D03*
X164900000Y-36562500D03*
D25*
X164900000Y-55362500D03*
X164900000Y-57437500D03*
D19*
X147600000Y-52000000D03*
X147600000Y-48000000D03*
D26*
X47575000Y-130000000D03*
X49625000Y-130000000D03*
D19*
X69750000Y-115750000D03*
X69750000Y-111750000D03*
X93000000Y-194000000D03*
X93000000Y-198000000D03*
D26*
X40775000Y-99200000D03*
X42825000Y-99200000D03*
D19*
X142500000Y-96000000D03*
X142500000Y-92000000D03*
D25*
X164500000Y-99962500D03*
X164500000Y-102037500D03*
D20*
X165500000Y-134550000D03*
X165500000Y-139950000D03*
D19*
X112904000Y-197000000D03*
X112904000Y-193000000D03*
X138500000Y-73750000D03*
X138500000Y-69750000D03*
X143904000Y-162000000D03*
X143904000Y-158000000D03*
X67500000Y-158500000D03*
X67500000Y-162500000D03*
X57000000Y-159500000D03*
X57000000Y-163500000D03*
D23*
X44750000Y-37787500D03*
X44750000Y-35712500D03*
D25*
X164500000Y-122462500D03*
X164500000Y-124537500D03*
D20*
X165500000Y-65300000D03*
X165500000Y-70700000D03*
X165500000Y-88300000D03*
X165500000Y-93700000D03*
D25*
X46300000Y-192562500D03*
X46300000Y-194637500D03*
D27*
X73000000Y-176500000D03*
X77000000Y-176500000D03*
D26*
X40775000Y-75800000D03*
X42825000Y-75800000D03*
D27*
X143000000Y-178500000D03*
X139000000Y-178500000D03*
D25*
X46500000Y-169162500D03*
X46500000Y-171237500D03*
D19*
X79500000Y-43000000D03*
X79500000Y-47000000D03*
X59800000Y-92600000D03*
X59800000Y-88600000D03*
X77500000Y-91000000D03*
X77500000Y-87000000D03*
X82800000Y-64500000D03*
X82800000Y-68500000D03*
X104500000Y-64500000D03*
X104500000Y-68500000D03*
X51100000Y-47000000D03*
X51100000Y-43000000D03*
D23*
X44500000Y-105537500D03*
X44500000Y-103462500D03*
D19*
X92400000Y-87000000D03*
X92400000Y-91000000D03*
D27*
X96200000Y-119000000D03*
X92199998Y-119000000D03*
D22*
X160675216Y-147124784D03*
X162124784Y-145675216D03*
D24*
X167524784Y-81875216D03*
X166075216Y-83324784D03*
D23*
X162500000Y-60977500D03*
X162500000Y-58902500D03*
D28*
X185500000Y-92950000D03*
X185500000Y-95000000D03*
D19*
X65500000Y-51000000D03*
X65500000Y-47000000D03*
D26*
X46775000Y-60200000D03*
X48825000Y-60200000D03*
D25*
X46500000Y-99000000D03*
X46500000Y-101075000D03*
D19*
X61250000Y-71500000D03*
X61250000Y-67500000D03*
X77000000Y-162500000D03*
X77000000Y-158500000D03*
X85200000Y-87000000D03*
X85200000Y-91000000D03*
X55000000Y-48000000D03*
X55000000Y-44000000D03*
D23*
X162500000Y-106037500D03*
X162500000Y-103962500D03*
D19*
X86600000Y-64500000D03*
X86600000Y-68500000D03*
X79000000Y-64500000D03*
X79000000Y-68500000D03*
D24*
X167800000Y-59000000D03*
X166350432Y-60449568D03*
D19*
X120500000Y-42000000D03*
X120500000Y-46000000D03*
X83000000Y-111750000D03*
X83000000Y-115750000D03*
D22*
X161000000Y-123600000D03*
X162449568Y-122150432D03*
D19*
X115000000Y-134400000D03*
X115000000Y-138400000D03*
D22*
X161400000Y-56600000D03*
X162849568Y-55150432D03*
D19*
X109500000Y-88000000D03*
X109500000Y-92000000D03*
D27*
X94800000Y-100400000D03*
X90800000Y-100400000D03*
X143000000Y-183596000D03*
X139000000Y-183596000D03*
D19*
X75000000Y-111750000D03*
X75000000Y-115750000D03*
X130500000Y-96000000D03*
X130500000Y-92000000D03*
D25*
X46500000Y-122712500D03*
X46500000Y-124787500D03*
D19*
X83000000Y-134750000D03*
X83000000Y-138750000D03*
X117600000Y-63600000D03*
X117600000Y-59600000D03*
D26*
X41175000Y-122000000D03*
X43225000Y-122000000D03*
D19*
X67000000Y-68500000D03*
X67000000Y-64500000D03*
X83500000Y-43000000D03*
X83500000Y-47000000D03*
X118000000Y-197000000D03*
X118000000Y-193000000D03*
D24*
X167924784Y-128075216D03*
X166475216Y-129524784D03*
D19*
X137000000Y-141250000D03*
X137000000Y-137250000D03*
D27*
X94200000Y-73400000D03*
X90199998Y-73400000D03*
D19*
X71000000Y-68500000D03*
X71000000Y-64500000D03*
X146800000Y-96000000D03*
X146800000Y-92000000D03*
X98096000Y-194000000D03*
X98096000Y-198000000D03*
X73000000Y-51000000D03*
X73000000Y-47000000D03*
D24*
X168324784Y-37875216D03*
X166875216Y-39324784D03*
D27*
X104500000Y-164000000D03*
X100500000Y-164000000D03*
X73102000Y-183823000D03*
X77102000Y-183823000D03*
X104500000Y-154596000D03*
X100500000Y-154596000D03*
D19*
X64400000Y-117600000D03*
X64400000Y-113600000D03*
X119400000Y-134600000D03*
X119400000Y-138600000D03*
D25*
X164300000Y-169162500D03*
X164300000Y-171237500D03*
X164300000Y-192762500D03*
X164300000Y-194837500D03*
D19*
X56600000Y-51400000D03*
X56600000Y-55400000D03*
X119400000Y-111200000D03*
X119400000Y-115200000D03*
X56200000Y-117800000D03*
X56200000Y-113800000D03*
D29*
X185550432Y-70050432D03*
X187000000Y-71500000D03*
D19*
X149000000Y-162000000D03*
X149000000Y-158000000D03*
D24*
X167724784Y-105075216D03*
X166275216Y-106524784D03*
D19*
X73000000Y-162500000D03*
X73000000Y-158500000D03*
X59100000Y-49200000D03*
X59100000Y-45200000D03*
X121400000Y-63600000D03*
X121400000Y-59600000D03*
X126800000Y-52000000D03*
X126800000Y-48000000D03*
D21*
X43400000Y-163500000D03*
X43400000Y-158100000D03*
D19*
X110000000Y-134500000D03*
X110000000Y-138500000D03*
X115096000Y-111250000D03*
X115096000Y-115250000D03*
D26*
X40975000Y-145000000D03*
X43025000Y-145000000D03*
D22*
X160875216Y-77524784D03*
X162324784Y-76075216D03*
D19*
X71500000Y-138500000D03*
X71500000Y-134500000D03*
X52200000Y-92600000D03*
X52200000Y-88600000D03*
X116600000Y-40000000D03*
X116600000Y-36000000D03*
X119000000Y-88000000D03*
X119000000Y-92000000D03*
X78750000Y-134750000D03*
X78750000Y-138750000D03*
X138400000Y-52000000D03*
X138400000Y-48000000D03*
D25*
X164750000Y-145962500D03*
X164750000Y-148037500D03*
D23*
X162700000Y-175437500D03*
X162700000Y-173362500D03*
X44250000Y-59500000D03*
X44250000Y-57425000D03*
D19*
X87000000Y-111750000D03*
X87000000Y-115750000D03*
X126250000Y-73750000D03*
X126250000Y-69750000D03*
X75000000Y-68500000D03*
X75000000Y-64500000D03*
D21*
X42900000Y-70700000D03*
X42900000Y-65300000D03*
D19*
X106400000Y-62000000D03*
X106400000Y-58000000D03*
D30*
X94614214Y-51585786D03*
X91785786Y-54414214D03*
D23*
X44700000Y-175237500D03*
X44700000Y-173162500D03*
D19*
X130250000Y-73750000D03*
X130250000Y-69750000D03*
X60200000Y-117800000D03*
X60200000Y-113800000D03*
D20*
X166500000Y-44300000D03*
X166500000Y-49700000D03*
D19*
X131654000Y-118000000D03*
X131654000Y-114000000D03*
X138500000Y-96000000D03*
X138500000Y-92000000D03*
D31*
X187500000Y-51000000D03*
X186050432Y-49550432D03*
D23*
X162500000Y-128787500D03*
X162500000Y-126712500D03*
D26*
X159775000Y-190000000D03*
X161825000Y-190000000D03*
D19*
X52600000Y-50200000D03*
X52600000Y-54200000D03*
X116250000Y-64500000D03*
X116250000Y-68500000D03*
D20*
X165500000Y-111300000D03*
X165500000Y-116700000D03*
D19*
X108400000Y-39800000D03*
X108400000Y-35800000D03*
D26*
X40775000Y-52200000D03*
X42825000Y-52200000D03*
D24*
X188700000Y-180800000D03*
X187250432Y-182249568D03*
D25*
X46500000Y-145712500D03*
X46500000Y-147787500D03*
D26*
X47375000Y-107200000D03*
X49425000Y-107200000D03*
D19*
X57500000Y-140750000D03*
X57500000Y-136750000D03*
D32*
X185600000Y-135725000D03*
X185600000Y-133675000D03*
D19*
X110000000Y-111250000D03*
X110000000Y-115250000D03*
X102000000Y-194000000D03*
X102000000Y-198000000D03*
D23*
X162700000Y-152237500D03*
X162700000Y-150162500D03*
D22*
X185675216Y-157824784D03*
X187124784Y-156375216D03*
D19*
X57250000Y-70750000D03*
X57250000Y-66750000D03*
D22*
X160475216Y-170200000D03*
X161924784Y-168750432D03*
X160600000Y-100800000D03*
X162049568Y-99350432D03*
D23*
X44700000Y-151837500D03*
X44700000Y-149762500D03*
D19*
X130600000Y-52000000D03*
X130600000Y-48000000D03*
X53250000Y-69750000D03*
X53250000Y-65750000D03*
X120250000Y-64500000D03*
X120250000Y-68500000D03*
X79000000Y-111750000D03*
X79000000Y-115750000D03*
D24*
X168524784Y-176675216D03*
X167075216Y-178124784D03*
D21*
X43500000Y-139950000D03*
X43500000Y-134550000D03*
D20*
X165500000Y-181500000D03*
X165500000Y-186900000D03*
D21*
X43500000Y-116950000D03*
X43500000Y-111550000D03*
D32*
X192600000Y-106624999D03*
X192600000Y-104575001D03*
D26*
X46600000Y-39000000D03*
X48650000Y-39000000D03*
D28*
X184400000Y-115075000D03*
X184400000Y-117125000D03*
D26*
X40975000Y-191800000D03*
X43025000Y-191800000D03*
D19*
X131904000Y-141250000D03*
X131904000Y-137250000D03*
D21*
X43300000Y-93700000D03*
X43300000Y-88300000D03*
D19*
X146500000Y-73750000D03*
X146500000Y-69750000D03*
X142600000Y-52000000D03*
X142600000Y-48000000D03*
X108500000Y-42000000D03*
X108500000Y-46000000D03*
D30*
X92000000Y-49000000D03*
X89171572Y-51828428D03*
D27*
X94800001Y-96600000D03*
X90799999Y-96600000D03*
D25*
X164500000Y-77000000D03*
X164500000Y-79075000D03*
X47750000Y-53212500D03*
X47750000Y-55287500D03*
D27*
X94200000Y-77200000D03*
X90200000Y-77200000D03*
D23*
X44500000Y-128537500D03*
X44500000Y-126462500D03*
D19*
X114596000Y-88000000D03*
X114596000Y-92000000D03*
D26*
X47175000Y-83200000D03*
X49225000Y-83200000D03*
D19*
X81750000Y-87000000D03*
X81750000Y-91000000D03*
D26*
X41175000Y-168400000D03*
X43225000Y-168400000D03*
D19*
X123000000Y-88000000D03*
X123000000Y-92000000D03*
X56000000Y-92600000D03*
X56000000Y-88600000D03*
X87400000Y-43000000D03*
X87400000Y-47000000D03*
D27*
X104500000Y-150500000D03*
X100500000Y-150500000D03*
D19*
X136750000Y-118000000D03*
X136750000Y-114000000D03*
D27*
X104500000Y-159692000D03*
X100500000Y-159692000D03*
D25*
X47000000Y-74212500D03*
X47000000Y-76287500D03*
D19*
X71000000Y-187000000D03*
X71000000Y-191000000D03*
G36*
X16693039Y-25019685D02*
G01*
X16738794Y-25072489D01*
X16750000Y-25124000D01*
X16750000Y-28875289D01*
X16730315Y-28942328D01*
X16677511Y-28988083D01*
X16626697Y-28999287D01*
X16500000Y-28999999D01*
X16500000Y-220000000D01*
X194500000Y-220000000D01*
X194500000Y-27999999D01*
X194374696Y-28000703D01*
X194307547Y-27981395D01*
X194261497Y-27928849D01*
X194250000Y-27876705D01*
X194250000Y-25124000D01*
X194269685Y-25056961D01*
X194322489Y-25011206D01*
X194374000Y-25000000D01*
X199876000Y-25000000D01*
X199943039Y-25019685D01*
X199988794Y-25072489D01*
X200000000Y-25124000D01*
X200000000Y-224876000D01*
X199980315Y-224943039D01*
X199927511Y-224988794D01*
X199876000Y-225000000D01*
X10124000Y-225000000D01*
X10056961Y-224980315D01*
X10011206Y-224927511D01*
X10000000Y-224876000D01*
X10000000Y-25124000D01*
X10019685Y-25056961D01*
X10072489Y-25011206D01*
X10124000Y-25000000D01*
X16626000Y-25000000D01*
X16693039Y-25019685D01*
G37*
G36*
X194693039Y-25019685D02*
G01*
X194738794Y-25072489D01*
X194750000Y-25124000D01*
X194750000Y-27987789D01*
X194747617Y-28011982D01*
X194745617Y-28022036D01*
X194713231Y-28083946D01*
X194652515Y-28118520D01*
X194582746Y-28114779D01*
X194526074Y-28073912D01*
X194500493Y-28008894D01*
X194500100Y-28000099D01*
X194500000Y-27999999D01*
X16500000Y-28999999D01*
X16499410Y-29000592D01*
X16480315Y-29065624D01*
X16427511Y-29111379D01*
X16358353Y-29121323D01*
X16294797Y-29092298D01*
X16257023Y-29033520D01*
X16254520Y-29023458D01*
X16252520Y-29013690D01*
X16250000Y-28988817D01*
X16250000Y-25124000D01*
X16269685Y-25056961D01*
X16322489Y-25011206D01*
X16374000Y-25000000D01*
X194626000Y-25000000D01*
X194693039Y-25019685D01*
G37*
G36*
X30443039Y-38219685D02*
G01*
X30488794Y-38272489D01*
X30500000Y-38324000D01*
X30500000Y-198440402D01*
X30480315Y-198507441D01*
X30453462Y-198537230D01*
X27999998Y-200500001D01*
X27999991Y-200500007D01*
X27211497Y-201288502D01*
X27150174Y-201321987D01*
X27080482Y-201317003D01*
X27024549Y-201275131D01*
X27000132Y-201209667D01*
X26999816Y-201200897D01*
X26900516Y-39645899D01*
X26920159Y-39578848D01*
X26930352Y-39565144D01*
X28062883Y-38243321D01*
X28121450Y-38205219D01*
X28157047Y-38200000D01*
X30376000Y-38200000D01*
X30443039Y-38219685D01*
G37*
G36*
X178708722Y-51201246D02*
G01*
X181441573Y-51591653D01*
X181505155Y-51620621D01*
X181530366Y-51650610D01*
X182082305Y-52570509D01*
X182099976Y-52634390D01*
X182000135Y-200799515D01*
X181980405Y-200866541D01*
X181927570Y-200912260D01*
X181858405Y-200922157D01*
X181820681Y-200910340D01*
X180026182Y-200013091D01*
X179982436Y-199976582D01*
X178524800Y-198033066D01*
X178500324Y-197967624D01*
X178500000Y-197958666D01*
X178500000Y-51324000D01*
X178519685Y-51256961D01*
X178572489Y-51211206D01*
X178624000Y-51200000D01*
X178691186Y-51200000D01*
X178708722Y-51201246D01*
G37*
G36*
X103443039Y-148769685D02*
G01*
X103488794Y-148822489D01*
X103500000Y-148874000D01*
X103500000Y-166126000D01*
X103480315Y-166193039D01*
X103427511Y-166238794D01*
X103376000Y-166250000D01*
X101624000Y-166250000D01*
X101556961Y-166230315D01*
X101511206Y-166177511D01*
X101500000Y-166126000D01*
X101500000Y-148874000D01*
X101519685Y-148806961D01*
X101572489Y-148761206D01*
X101624000Y-148750000D01*
X103376000Y-148750000D01*
X103443039Y-148769685D01*
G37*
G36*
X122193039Y-43019685D02*
G01*
X122238794Y-43072489D01*
X122250000Y-43124000D01*
X122250000Y-44876000D01*
X122230315Y-44943039D01*
X122177511Y-44988794D01*
X122126000Y-45000000D01*
X114874000Y-45000000D01*
X114806961Y-44980315D01*
X114761206Y-44927511D01*
X114750000Y-44876000D01*
X114750000Y-43124000D01*
X114769685Y-43056961D01*
X114822489Y-43011206D01*
X114874000Y-43000000D01*
X122126000Y-43000000D01*
X122193039Y-43019685D01*
G37*
G36*
X132443039Y-49019685D02*
G01*
X132488794Y-49072489D01*
X132500000Y-49124000D01*
X132500000Y-50876000D01*
X132480315Y-50943039D01*
X132427511Y-50988794D01*
X132376000Y-51000000D01*
X125124000Y-51000000D01*
X125056961Y-50980315D01*
X125011206Y-50927511D01*
X125000000Y-50876000D01*
X125000000Y-49124000D01*
X125019685Y-49056961D01*
X125072489Y-49011206D01*
X125124000Y-49000000D01*
X132376000Y-49000000D01*
X132443039Y-49019685D01*
G37*
G36*
X149443039Y-49019685D02*
G01*
X149488794Y-49072489D01*
X149500000Y-49124000D01*
X149500000Y-50876000D01*
X149480315Y-50943039D01*
X149427511Y-50988794D01*
X149376000Y-51000000D01*
X136624000Y-51000000D01*
X136556961Y-50980315D01*
X136511206Y-50927511D01*
X136500000Y-50876000D01*
X136500000Y-49124000D01*
X136519685Y-49056961D01*
X136572489Y-49011206D01*
X136624000Y-49000000D01*
X149376000Y-49000000D01*
X149443039Y-49019685D01*
G37*
G36*
X89193039Y-44019685D02*
G01*
X89238794Y-44072489D01*
X89250000Y-44124000D01*
X89250000Y-45876000D01*
X89230315Y-45943039D01*
X89177511Y-45988794D01*
X89126000Y-46000000D01*
X77874000Y-46000000D01*
X77806961Y-45980315D01*
X77761206Y-45927511D01*
X77750000Y-45876000D01*
X77750000Y-44124000D01*
X77769685Y-44056961D01*
X77822489Y-44011206D01*
X77874000Y-44000000D01*
X89126000Y-44000000D01*
X89193039Y-44019685D01*
G37*
G36*
X74693039Y-48019685D02*
G01*
X74738794Y-48072489D01*
X74750000Y-48124000D01*
X74750000Y-49876000D01*
X74730315Y-49943039D01*
X74677511Y-49988794D01*
X74626000Y-50000000D01*
X63874000Y-50000000D01*
X63806961Y-49980315D01*
X63761206Y-49927511D01*
X63750000Y-49876000D01*
X63750000Y-48124000D01*
X63769685Y-48056961D01*
X63822489Y-48011206D01*
X63874000Y-48000000D01*
X74626000Y-48000000D01*
X74693039Y-48019685D01*
G37*
G36*
X88443039Y-65519685D02*
G01*
X88488794Y-65572489D01*
X88500000Y-65624000D01*
X88500000Y-67376000D01*
X88480315Y-67443039D01*
X88427511Y-67488794D01*
X88376000Y-67500000D01*
X65374000Y-67500000D01*
X65306961Y-67480315D01*
X65261206Y-67427511D01*
X65250000Y-67376000D01*
X65250000Y-65624000D01*
X65269685Y-65556961D01*
X65322489Y-65511206D01*
X65374000Y-65500000D01*
X88376000Y-65500000D01*
X88443039Y-65519685D01*
G37*
G36*
X93193039Y-71519685D02*
G01*
X93238794Y-71572489D01*
X93250000Y-71624000D01*
X93250000Y-78876000D01*
X93230315Y-78943039D01*
X93177511Y-78988794D01*
X93126000Y-79000000D01*
X91374000Y-79000000D01*
X91306961Y-78980315D01*
X91261206Y-78927511D01*
X91250000Y-78876000D01*
X91250000Y-71624000D01*
X91269685Y-71556961D01*
X91322489Y-71511206D01*
X91374000Y-71500000D01*
X93126000Y-71500000D01*
X93193039Y-71519685D01*
G37*
G36*
X110193039Y-65519685D02*
G01*
X110238794Y-65572489D01*
X110250000Y-65624000D01*
X110250000Y-67376000D01*
X110230315Y-67443039D01*
X110177511Y-67488794D01*
X110126000Y-67500000D01*
X102874000Y-67500000D01*
X102806961Y-67480315D01*
X102761206Y-67427511D01*
X102750000Y-67376000D01*
X102750000Y-65624000D01*
X102769685Y-65556961D01*
X102822489Y-65511206D01*
X102874000Y-65500000D01*
X110126000Y-65500000D01*
X110193039Y-65519685D01*
G37*
G36*
X108193039Y-59019685D02*
G01*
X108238794Y-59072489D01*
X108250000Y-59124000D01*
X108250000Y-60876000D01*
X108230315Y-60943039D01*
X108177511Y-60988794D01*
X108126000Y-61000000D01*
X100874000Y-61000000D01*
X100806961Y-60980315D01*
X100761206Y-60927511D01*
X100750000Y-60876000D01*
X100750000Y-59124000D01*
X100769685Y-59056961D01*
X100822489Y-59011206D01*
X100874000Y-59000000D01*
X108126000Y-59000000D01*
X108193039Y-59019685D01*
G37*
G36*
X123193039Y-60519685D02*
G01*
X123238794Y-60572489D01*
X123250000Y-60624000D01*
X123250000Y-62376000D01*
X123230315Y-62443039D01*
X123177511Y-62488794D01*
X123126000Y-62500000D01*
X115874000Y-62500000D01*
X115806961Y-62480315D01*
X115761206Y-62427511D01*
X115750000Y-62376000D01*
X115750000Y-60624000D01*
X115769685Y-60556961D01*
X115822489Y-60511206D01*
X115874000Y-60500000D01*
X123126000Y-60500000D01*
X123193039Y-60519685D01*
G37*
G36*
X121943039Y-65519685D02*
G01*
X121988794Y-65572489D01*
X122000000Y-65624000D01*
X122000000Y-67376000D01*
X121980315Y-67443039D01*
X121927511Y-67488794D01*
X121876000Y-67500000D01*
X114624000Y-67500000D01*
X114556961Y-67480315D01*
X114511206Y-67427511D01*
X114500000Y-67376000D01*
X114500000Y-65624000D01*
X114519685Y-65556961D01*
X114572489Y-65511206D01*
X114624000Y-65500000D01*
X121876000Y-65500000D01*
X121943039Y-65519685D01*
G37*
G36*
X131943039Y-70769685D02*
G01*
X131988794Y-70822489D01*
X132000000Y-70874000D01*
X132000000Y-72626000D01*
X131980315Y-72693039D01*
X131927511Y-72738794D01*
X131876000Y-72750000D01*
X124624000Y-72750000D01*
X124556961Y-72730315D01*
X124511206Y-72677511D01*
X124500000Y-72626000D01*
X124500000Y-70874000D01*
X124519685Y-70806961D01*
X124572489Y-70761206D01*
X124624000Y-70750000D01*
X131876000Y-70750000D01*
X131943039Y-70769685D01*
G37*
G36*
X148193039Y-70769685D02*
G01*
X148238794Y-70822489D01*
X148250000Y-70874000D01*
X148250000Y-72626000D01*
X148230315Y-72693039D01*
X148177511Y-72738794D01*
X148126000Y-72750000D01*
X136874000Y-72750000D01*
X136806961Y-72730315D01*
X136761206Y-72677511D01*
X136750000Y-72626000D01*
X136750000Y-70874000D01*
X136769685Y-70806961D01*
X136822489Y-70761206D01*
X136874000Y-70750000D01*
X148126000Y-70750000D01*
X148193039Y-70769685D01*
G37*
G36*
X124693039Y-89019685D02*
G01*
X124738794Y-89072489D01*
X124750000Y-89124000D01*
X124750000Y-90876000D01*
X124730315Y-90943039D01*
X124677511Y-90988794D01*
X124626000Y-91000000D01*
X107874000Y-91000000D01*
X107806961Y-90980315D01*
X107761206Y-90927511D01*
X107750000Y-90876000D01*
X107750000Y-89124000D01*
X107769685Y-89056961D01*
X107822489Y-89011206D01*
X107874000Y-89000000D01*
X124626000Y-89000000D01*
X124693039Y-89019685D01*
G37*
G36*
X148443039Y-93019685D02*
G01*
X148488794Y-93072489D01*
X148500000Y-93124000D01*
X148500000Y-94876000D01*
X148480315Y-94943039D01*
X148427511Y-94988794D01*
X148376000Y-95000000D01*
X136874000Y-95000000D01*
X136806961Y-94980315D01*
X136761206Y-94927511D01*
X136750000Y-94876000D01*
X136750000Y-93124000D01*
X136769685Y-93056961D01*
X136822489Y-93011206D01*
X136874000Y-93000000D01*
X148376000Y-93000000D01*
X148443039Y-93019685D01*
G37*
G36*
X93693039Y-94769685D02*
G01*
X93738794Y-94822489D01*
X93750000Y-94874000D01*
X93750000Y-102126000D01*
X93730315Y-102193039D01*
X93677511Y-102238794D01*
X93626000Y-102250000D01*
X91874000Y-102250000D01*
X91806961Y-102230315D01*
X91761206Y-102177511D01*
X91750000Y-102126000D01*
X91750000Y-94874000D01*
X91769685Y-94806961D01*
X91822489Y-94761206D01*
X91874000Y-94750000D01*
X93626000Y-94750000D01*
X93693039Y-94769685D01*
G37*
G36*
X94193039Y-88019685D02*
G01*
X94238794Y-88072489D01*
X94250000Y-88124000D01*
X94250000Y-89876000D01*
X94230315Y-89943039D01*
X94177511Y-89988794D01*
X94126000Y-90000000D01*
X70624000Y-90000000D01*
X70556961Y-89980315D01*
X70511206Y-89927511D01*
X70500000Y-89876000D01*
X70500000Y-88124000D01*
X70519685Y-88056961D01*
X70572489Y-88011206D01*
X70624000Y-88000000D01*
X94126000Y-88000000D01*
X94193039Y-88019685D01*
G37*
G36*
X61693039Y-89519685D02*
G01*
X61738794Y-89572489D01*
X61750000Y-89624000D01*
X61750000Y-91376000D01*
X61730315Y-91443039D01*
X61677511Y-91488794D01*
X61626000Y-91500000D01*
X50374000Y-91500000D01*
X50306961Y-91480315D01*
X50261206Y-91427511D01*
X50250000Y-91376000D01*
X50250000Y-89624000D01*
X50269685Y-89556961D01*
X50322489Y-89511206D01*
X50374000Y-89500000D01*
X61626000Y-89500000D01*
X61693039Y-89519685D01*
G37*
G36*
X150693039Y-159019685D02*
G01*
X150738794Y-159072489D01*
X150750000Y-159124000D01*
X150750000Y-160876000D01*
X150730315Y-160943039D01*
X150677511Y-160988794D01*
X150626000Y-161000000D01*
X142124000Y-161000000D01*
X142056961Y-160980315D01*
X142011206Y-160927511D01*
X142000000Y-160876000D01*
X142000000Y-159124000D01*
X142019685Y-159056961D01*
X142072489Y-159011206D01*
X142124000Y-159000000D01*
X150626000Y-159000000D01*
X150693039Y-159019685D01*
G37*
G36*
X52693039Y-44019685D02*
G01*
X52738794Y-44072489D01*
X52750000Y-44124000D01*
X52750000Y-45876000D01*
X52730315Y-45943039D01*
X52677511Y-45988794D01*
X52626000Y-46000000D01*
X49374000Y-46000000D01*
X49306961Y-45980315D01*
X49261206Y-45927511D01*
X49250000Y-45876000D01*
X49250000Y-44124000D01*
X49269685Y-44056961D01*
X49322489Y-44011206D01*
X49374000Y-44000000D01*
X52626000Y-44000000D01*
X52693039Y-44019685D01*
G37*
G36*
X56693039Y-45019685D02*
G01*
X56738794Y-45072489D01*
X56750000Y-45124000D01*
X56750000Y-46876000D01*
X56730315Y-46943039D01*
X56677511Y-46988794D01*
X56626000Y-47000000D01*
X53374000Y-47000000D01*
X53306961Y-46980315D01*
X53261206Y-46927511D01*
X53250000Y-46876000D01*
X53250000Y-45124000D01*
X53269685Y-45056961D01*
X53322489Y-45011206D01*
X53374000Y-45000000D01*
X56626000Y-45000000D01*
X56693039Y-45019685D01*
G37*
G36*
X60693039Y-46269685D02*
G01*
X60738794Y-46322489D01*
X60750000Y-46374000D01*
X60750000Y-48126000D01*
X60730315Y-48193039D01*
X60677511Y-48238794D01*
X60626000Y-48250000D01*
X57374000Y-48250000D01*
X57306961Y-48230315D01*
X57261206Y-48177511D01*
X57250000Y-48126000D01*
X57250000Y-46374000D01*
X57269685Y-46306961D01*
X57322489Y-46261206D01*
X57374000Y-46250000D01*
X60626000Y-46250000D01*
X60693039Y-46269685D01*
G37*
G36*
X54193039Y-51269685D02*
G01*
X54238794Y-51322489D01*
X54250000Y-51374000D01*
X54250000Y-53126000D01*
X54230315Y-53193039D01*
X54177511Y-53238794D01*
X54126000Y-53250000D01*
X50874000Y-53250000D01*
X50806961Y-53230315D01*
X50761206Y-53177511D01*
X50750000Y-53126000D01*
X50750000Y-51374000D01*
X50769685Y-51306961D01*
X50822489Y-51261206D01*
X50874000Y-51250000D01*
X54126000Y-51250000D01*
X54193039Y-51269685D01*
G37*
G36*
X58193039Y-52519685D02*
G01*
X58238794Y-52572489D01*
X58250000Y-52624000D01*
X58250000Y-54376000D01*
X58230315Y-54443039D01*
X58177511Y-54488794D01*
X58126000Y-54500000D01*
X54874000Y-54500000D01*
X54806961Y-54480315D01*
X54761206Y-54427511D01*
X54750000Y-54376000D01*
X54750000Y-52624000D01*
X54769685Y-52556961D01*
X54822489Y-52511206D01*
X54874000Y-52500000D01*
X58126000Y-52500000D01*
X58193039Y-52519685D01*
G37*
G36*
X54943039Y-66769685D02*
G01*
X54988794Y-66822489D01*
X55000000Y-66874000D01*
X55000000Y-68626000D01*
X54980315Y-68693039D01*
X54927511Y-68738794D01*
X54876000Y-68750000D01*
X51624000Y-68750000D01*
X51556961Y-68730315D01*
X51511206Y-68677511D01*
X51500000Y-68626000D01*
X51500000Y-66874000D01*
X51519685Y-66806961D01*
X51572489Y-66761206D01*
X51624000Y-66750000D01*
X54876000Y-66750000D01*
X54943039Y-66769685D01*
G37*
G36*
X58943039Y-67769685D02*
G01*
X58988794Y-67822489D01*
X59000000Y-67874000D01*
X59000000Y-69626000D01*
X58980315Y-69693039D01*
X58927511Y-69738794D01*
X58876000Y-69750000D01*
X55624000Y-69750000D01*
X55556961Y-69730315D01*
X55511206Y-69677511D01*
X55500000Y-69626000D01*
X55500000Y-67874000D01*
X55519685Y-67806961D01*
X55572489Y-67761206D01*
X55624000Y-67750000D01*
X58876000Y-67750000D01*
X58943039Y-67769685D01*
G37*
G36*
X62943039Y-68519685D02*
G01*
X62988794Y-68572489D01*
X63000000Y-68624000D01*
X63000000Y-70376000D01*
X62980315Y-70443039D01*
X62927511Y-70488794D01*
X62876000Y-70500000D01*
X59624000Y-70500000D01*
X59556961Y-70480315D01*
X59511206Y-70427511D01*
X59500000Y-70376000D01*
X59500000Y-68624000D01*
X59519685Y-68556961D01*
X59572489Y-68511206D01*
X59624000Y-68500000D01*
X62876000Y-68500000D01*
X62943039Y-68519685D01*
G37*
G36*
X95193039Y-117269685D02*
G01*
X95238794Y-117322489D01*
X95250000Y-117374000D01*
X95250000Y-120626000D01*
X95230315Y-120693039D01*
X95177511Y-120738794D01*
X95126000Y-120750000D01*
X93374000Y-120750000D01*
X93306961Y-120730315D01*
X93261206Y-120677511D01*
X93250000Y-120626000D01*
X93250000Y-117374000D01*
X93269685Y-117306961D01*
X93322489Y-117261206D01*
X93374000Y-117250000D01*
X95126000Y-117250000D01*
X95193039Y-117269685D01*
G37*
G36*
X72693039Y-188019685D02*
G01*
X72738794Y-188072489D01*
X72750000Y-188124000D01*
X72750000Y-189876000D01*
X72730315Y-189943039D01*
X72677511Y-189988794D01*
X72626000Y-190000000D01*
X69374000Y-190000000D01*
X69306961Y-189980315D01*
X69261206Y-189927511D01*
X69250000Y-189876000D01*
X69250000Y-188124000D01*
X69269685Y-188056961D01*
X69322489Y-188011206D01*
X69374000Y-188000000D01*
X72626000Y-188000000D01*
X72693039Y-188019685D01*
G37*
G36*
X63193039Y-138269685D02*
G01*
X63238794Y-138322489D01*
X63250000Y-138374000D01*
X63250000Y-140126000D01*
X63230315Y-140193039D01*
X63177511Y-140238794D01*
X63126000Y-140250000D01*
X59874000Y-140250000D01*
X59806961Y-140230315D01*
X59761206Y-140177511D01*
X59750000Y-140126000D01*
X59750000Y-138374000D01*
X59769685Y-138306961D01*
X59822489Y-138261206D01*
X59874000Y-138250000D01*
X63126000Y-138250000D01*
X63193039Y-138269685D01*
G37*
G36*
X59193039Y-137769685D02*
G01*
X59238794Y-137822489D01*
X59250000Y-137874000D01*
X59250000Y-139626000D01*
X59230315Y-139693039D01*
X59177511Y-139738794D01*
X59126000Y-139750000D01*
X55874000Y-139750000D01*
X55806961Y-139730315D01*
X55761206Y-139677511D01*
X55750000Y-139626000D01*
X55750000Y-137874000D01*
X55769685Y-137806961D01*
X55822489Y-137761206D01*
X55874000Y-137750000D01*
X59126000Y-137750000D01*
X59193039Y-137769685D01*
G37*
G36*
X132193039Y-93019685D02*
G01*
X132238794Y-93072489D01*
X132250000Y-93124000D01*
X132250000Y-94876000D01*
X132230315Y-94943039D01*
X132177511Y-94988794D01*
X132126000Y-95000000D01*
X128874000Y-95000000D01*
X128806961Y-94980315D01*
X128761206Y-94927511D01*
X128750000Y-94876000D01*
X128750000Y-93124000D01*
X128769685Y-93056961D01*
X128822489Y-93011206D01*
X128874000Y-93000000D01*
X132126000Y-93000000D01*
X132193039Y-93019685D01*
G37*
G36*
X110193039Y-36769685D02*
G01*
X110238794Y-36822489D01*
X110250000Y-36874000D01*
X110250000Y-38626000D01*
X110230315Y-38693039D01*
X110177511Y-38738794D01*
X110126000Y-38750000D01*
X106874000Y-38750000D01*
X106806961Y-38730315D01*
X106761206Y-38677511D01*
X106750000Y-38626000D01*
X106750000Y-36874000D01*
X106769685Y-36806961D01*
X106822489Y-36761206D01*
X106874000Y-36750000D01*
X110126000Y-36750000D01*
X110193039Y-36769685D01*
G37*
G36*
X118443039Y-37019685D02*
G01*
X118488794Y-37072489D01*
X118500000Y-37124000D01*
X118500000Y-38876000D01*
X118480315Y-38943039D01*
X118427511Y-38988794D01*
X118376000Y-39000000D01*
X115124000Y-39000000D01*
X115056961Y-38980315D01*
X115011206Y-38927511D01*
X115000000Y-38876000D01*
X115000000Y-37124000D01*
X115019685Y-37056961D01*
X115072489Y-37011206D01*
X115124000Y-37000000D01*
X118376000Y-37000000D01*
X118443039Y-37019685D01*
G37*
G36*
X110193039Y-43019685D02*
G01*
X110238794Y-43072489D01*
X110250000Y-43124000D01*
X110250000Y-44876000D01*
X110230315Y-44943039D01*
X110177511Y-44988794D01*
X110126000Y-45000000D01*
X106874000Y-45000000D01*
X106806961Y-44980315D01*
X106761206Y-44927511D01*
X106750000Y-44876000D01*
X106750000Y-43124000D01*
X106769685Y-43056961D01*
X106822489Y-43011206D01*
X106874000Y-43000000D01*
X110126000Y-43000000D01*
X110193039Y-43019685D01*
G37*
G36*
X75943039Y-174769685D02*
G01*
X75988794Y-174822489D01*
X76000000Y-174874000D01*
X76000000Y-178126000D01*
X75980315Y-178193039D01*
X75927511Y-178238794D01*
X75876000Y-178250000D01*
X74124000Y-178250000D01*
X74056961Y-178230315D01*
X74011206Y-178177511D01*
X74000000Y-178126000D01*
X74000000Y-174874000D01*
X74019685Y-174806961D01*
X74072489Y-174761206D01*
X74124000Y-174750000D01*
X75876000Y-174750000D01*
X75943039Y-174769685D01*
G37*
G36*
X76193039Y-182019685D02*
G01*
X76238794Y-182072489D01*
X76250000Y-182124000D01*
X76250000Y-185376000D01*
X76230315Y-185443039D01*
X76177511Y-185488794D01*
X76126000Y-185500000D01*
X74374000Y-185500000D01*
X74306961Y-185480315D01*
X74261206Y-185427511D01*
X74250000Y-185376000D01*
X74250000Y-182124000D01*
X74269685Y-182056961D01*
X74322489Y-182011206D01*
X74374000Y-182000000D01*
X76126000Y-182000000D01*
X76193039Y-182019685D01*
G37*
G36*
X58693039Y-160519685D02*
G01*
X58738794Y-160572489D01*
X58750000Y-160624000D01*
X58750000Y-162376000D01*
X58730315Y-162443039D01*
X58677511Y-162488794D01*
X58626000Y-162500000D01*
X55374000Y-162500000D01*
X55306961Y-162480315D01*
X55261206Y-162427511D01*
X55250000Y-162376000D01*
X55250000Y-160624000D01*
X55269685Y-160556961D01*
X55322489Y-160511206D01*
X55374000Y-160500000D01*
X58626000Y-160500000D01*
X58693039Y-160519685D01*
G37*
G36*
X63693039Y-160519685D02*
G01*
X63738794Y-160572489D01*
X63750000Y-160624000D01*
X63750000Y-162376000D01*
X63730315Y-162443039D01*
X63677511Y-162488794D01*
X63626000Y-162500000D01*
X60374000Y-162500000D01*
X60306961Y-162480315D01*
X60261206Y-162427511D01*
X60250000Y-162376000D01*
X60250000Y-160624000D01*
X60269685Y-160556961D01*
X60322489Y-160511206D01*
X60374000Y-160500000D01*
X63626000Y-160500000D01*
X63693039Y-160519685D01*
G37*
G36*
X69193039Y-159269685D02*
G01*
X69238794Y-159322489D01*
X69250000Y-159374000D01*
X69250000Y-161126000D01*
X69230315Y-161193039D01*
X69177511Y-161238794D01*
X69126000Y-161250000D01*
X65874000Y-161250000D01*
X65806961Y-161230315D01*
X65761206Y-161177511D01*
X65750000Y-161126000D01*
X65750000Y-159374000D01*
X65769685Y-159306961D01*
X65822489Y-159261206D01*
X65874000Y-159250000D01*
X69126000Y-159250000D01*
X69193039Y-159269685D01*
G37*
G36*
X141943039Y-176769685D02*
G01*
X141988794Y-176822489D01*
X142000000Y-176874000D01*
X142000000Y-180126000D01*
X141980315Y-180193039D01*
X141927511Y-180238794D01*
X141876000Y-180250000D01*
X140124000Y-180250000D01*
X140056961Y-180230315D01*
X140011206Y-180177511D01*
X140000000Y-180126000D01*
X140000000Y-176874000D01*
X140019685Y-176806961D01*
X140072489Y-176761206D01*
X140124000Y-176750000D01*
X141876000Y-176750000D01*
X141943039Y-176769685D01*
G37*
G36*
X141943039Y-181769685D02*
G01*
X141988794Y-181822489D01*
X142000000Y-181874000D01*
X142000000Y-185126000D01*
X141980315Y-185193039D01*
X141927511Y-185238794D01*
X141876000Y-185250000D01*
X140124000Y-185250000D01*
X140056961Y-185230315D01*
X140011206Y-185177511D01*
X140000000Y-185126000D01*
X140000000Y-181874000D01*
X140019685Y-181806961D01*
X140072489Y-181761206D01*
X140124000Y-181750000D01*
X141876000Y-181750000D01*
X141943039Y-181769685D01*
G37*
G36*
X114693039Y-194019685D02*
G01*
X114738794Y-194072489D01*
X114750000Y-194124000D01*
X114750000Y-195876000D01*
X114730315Y-195943039D01*
X114677511Y-195988794D01*
X114626000Y-196000000D01*
X111374000Y-196000000D01*
X111306961Y-195980315D01*
X111261206Y-195927511D01*
X111250000Y-195876000D01*
X111250000Y-194124000D01*
X111269685Y-194056961D01*
X111322489Y-194011206D01*
X111374000Y-194000000D01*
X114626000Y-194000000D01*
X114693039Y-194019685D01*
G37*
G36*
X119693039Y-194019685D02*
G01*
X119738794Y-194072489D01*
X119750000Y-194124000D01*
X119750000Y-195876000D01*
X119730315Y-195943039D01*
X119677511Y-195988794D01*
X119626000Y-196000000D01*
X116374000Y-196000000D01*
X116306961Y-195980315D01*
X116261206Y-195927511D01*
X116250000Y-195876000D01*
X116250000Y-194124000D01*
X116269685Y-194056961D01*
X116322489Y-194011206D01*
X116374000Y-194000000D01*
X119626000Y-194000000D01*
X119693039Y-194019685D01*
G37*
G36*
X83943039Y-159519685D02*
G01*
X83988794Y-159572489D01*
X84000000Y-159624000D01*
X84000000Y-161376000D01*
X83980315Y-161443039D01*
X83927511Y-161488794D01*
X83876000Y-161500000D01*
X71374000Y-161500000D01*
X71306961Y-161480315D01*
X71261206Y-161427511D01*
X71250000Y-161376000D01*
X71250000Y-159624000D01*
X71269685Y-159556961D01*
X71322489Y-159511206D01*
X71374000Y-159500000D01*
X83876000Y-159500000D01*
X83943039Y-159519685D01*
G37*
G36*
X103693039Y-195019685D02*
G01*
X103738794Y-195072489D01*
X103750000Y-195124000D01*
X103750000Y-196876000D01*
X103730315Y-196943039D01*
X103677511Y-196988794D01*
X103626000Y-197000000D01*
X91374000Y-197000000D01*
X91306961Y-196980315D01*
X91261206Y-196927511D01*
X91250000Y-196876000D01*
X91250000Y-195124000D01*
X91269685Y-195056961D01*
X91322489Y-195011206D01*
X91374000Y-195000000D01*
X103626000Y-195000000D01*
X103693039Y-195019685D01*
G37*
G36*
X138693039Y-138269685D02*
G01*
X138738794Y-138322489D01*
X138750000Y-138374000D01*
X138750000Y-140126000D01*
X138730315Y-140193039D01*
X138677511Y-140238794D01*
X138626000Y-140250000D01*
X130374000Y-140250000D01*
X130306961Y-140230315D01*
X130261206Y-140177511D01*
X130250000Y-140126000D01*
X130250000Y-138374000D01*
X130269685Y-138306961D01*
X130322489Y-138261206D01*
X130374000Y-138250000D01*
X138626000Y-138250000D01*
X138693039Y-138269685D01*
G37*
G36*
X121193039Y-135519685D02*
G01*
X121238794Y-135572489D01*
X121250000Y-135624000D01*
X121250000Y-137376000D01*
X121230315Y-137443039D01*
X121177511Y-137488794D01*
X121126000Y-137500000D01*
X108374000Y-137500000D01*
X108306961Y-137480315D01*
X108261206Y-137427511D01*
X108250000Y-137376000D01*
X108250000Y-135624000D01*
X108269685Y-135556961D01*
X108322489Y-135511206D01*
X108374000Y-135500000D01*
X121126000Y-135500000D01*
X121193039Y-135519685D01*
G37*
G36*
X84628066Y-135747967D02*
G01*
X84694768Y-135768766D01*
X84739637Y-135822325D01*
X84750000Y-135871950D01*
X84750000Y-137626000D01*
X84730315Y-137693039D01*
X84677511Y-137738794D01*
X84626000Y-137750000D01*
X69874000Y-137750000D01*
X69806961Y-137730315D01*
X69761206Y-137677511D01*
X69750000Y-137626000D01*
X69750000Y-135626084D01*
X69769685Y-135559045D01*
X69822489Y-135513290D01*
X69876066Y-135502101D01*
X84628066Y-135747967D01*
G37*
G36*
X88693039Y-112769685D02*
G01*
X88738794Y-112822489D01*
X88750000Y-112874000D01*
X88750000Y-114626000D01*
X88730315Y-114693039D01*
X88677511Y-114738794D01*
X88626000Y-114750000D01*
X68124000Y-114750000D01*
X68056961Y-114730315D01*
X68011206Y-114677511D01*
X68000000Y-114626000D01*
X68000000Y-112874000D01*
X68019685Y-112806961D01*
X68072489Y-112761206D01*
X68124000Y-112750000D01*
X88626000Y-112750000D01*
X88693039Y-112769685D01*
G37*
G36*
X66190805Y-114520948D02*
G01*
X66237673Y-114572767D01*
X66250000Y-114626666D01*
X66250000Y-116378610D01*
X66230315Y-116445649D01*
X66177511Y-116491404D01*
X66128638Y-116502582D01*
X54626638Y-116747305D01*
X54559195Y-116729051D01*
X54512327Y-116677232D01*
X54500000Y-116623333D01*
X54500000Y-114871389D01*
X54519685Y-114804350D01*
X54572489Y-114758595D01*
X54621362Y-114747417D01*
X66123362Y-114502694D01*
X66190805Y-114520948D01*
G37*
G36*
X121193039Y-112269685D02*
G01*
X121238794Y-112322489D01*
X121250000Y-112374000D01*
X121250000Y-114126000D01*
X121230315Y-114193039D01*
X121177511Y-114238794D01*
X121126000Y-114250000D01*
X108374000Y-114250000D01*
X108306961Y-114230315D01*
X108261206Y-114177511D01*
X108250000Y-114126000D01*
X108250000Y-112374000D01*
X108269685Y-112306961D01*
X108322489Y-112261206D01*
X108374000Y-112250000D01*
X121126000Y-112250000D01*
X121193039Y-112269685D01*
G37*
G36*
X138443039Y-115019685D02*
G01*
X138488794Y-115072489D01*
X138500000Y-115124000D01*
X138500000Y-116876000D01*
X138480315Y-116943039D01*
X138427511Y-116988794D01*
X138376000Y-117000000D01*
X130124000Y-117000000D01*
X130056961Y-116980315D01*
X130011206Y-116927511D01*
X130000000Y-116876000D01*
X130000000Y-115124000D01*
X130019685Y-115056961D01*
X130072489Y-115011206D01*
X130124000Y-115000000D01*
X138376000Y-115000000D01*
X138443039Y-115019685D01*
G37*
G36*
X90095950Y-48591381D02*
G01*
X95157990Y-53412371D01*
X95192960Y-53472859D01*
X95189677Y-53542652D01*
X95160154Y-53589845D01*
X93837681Y-54912319D01*
X93776358Y-54945804D01*
X93706666Y-54940820D01*
X93662319Y-54912319D01*
X88830071Y-50080071D01*
X88796586Y-50018748D01*
X88801570Y-49949056D01*
X88822493Y-49913007D01*
X89915174Y-48601791D01*
X89973213Y-48562892D01*
X90043070Y-48561546D01*
X90095950Y-48591381D01*
G37*
M02*
